<svg xmlns="http://www.w3.org/2000/svg" viewBox="0 0 839.98 610.31"><defs><style>.cls-1{fill:#efbfa5;}.cls-2{fill:#8cabef;}.cls-3{fill:#3b3387;}.cls-4{fill:#eff5f1;}.cls-5{fill:#353a85;}.cls-6{fill:#292949;}.cls-7{fill:#babcbe;}.cls-8{fill:#909497;}.cls-9{fill:#3e3d3b;}.cls-10{fill:#e0e0e1;}.cls-11{fill:#474ebb;}.cls-12{fill:#e1cfb5;}.cls-13{fill:#f4c7b3;}.cls-14{fill:#5d66d3;}.cls-15{fill:#d6c7ac;}.cls-16{fill:#454446;}.cls-17{fill:#d67086;}.cls-18{fill:#eed5d5;}</style></defs><title>hmm</title><g id="Layer_2" data-name="Layer 2"><g id="object"><polygon class="cls-1" points="242.17 551.94 242.17 586.92 254.74 586.92 260.75 547.57 242.17 551.94"/><polygon class="cls-1" points="313.69 545.03 320.5 589.05 335.24 588.42 333.35 544.18 313.69 545.03"/><polygon class="cls-2" points="236.16 424.04 236.16 535.54 236.16 554.67 262.39 553.58 277.15 476.51 294.68 405.13 236.16 424.04"/><polygon class="cls-2" points="335.44 399.89 338.71 547.65 309.2 547.57 302.78 496.18 275.79 409.08 335.44 399.89"/><path class="cls-3" d="M259.78,232l-.67.25c-10.62,4.14-19,22.67-23.74,33.57C223,293.9,217.64,323.2,216.66,354.27c-.52,16.73-.33,33.49.21,50.24.14,4.62,4.15,46,2.1,47,21-10.15,42.43-19.73,64.82-25.52s45.95-7.7,68.57-2.42c-6.88-52.57-16.85-106.06-31.23-156.85-1.72-6.08-2.87-12.56-5.42-18.31-2.94-6.63-7.34-8.59-12.91-12.51a35.63,35.63,0,0,0-5.92-3.63C285.83,227.36,271,227.81,259.78,232Z"/><path class="cls-4" d="M338.93,399.27c-28,4.27-74.61,7.54-102.61,11.81C234.81,360.45,239.79,302,252,253c2.22-8.88,5.49-18.48,13.26-23,8.32-4.85,26-4.19,31,5.23,7.43,13.79,8.9,35.73,12.21,51.07C316,321,334.28,364.05,338.93,399.27Z"/><path class="cls-1" d="M294.36,194c-4.16-20.6-29.92-16.73-37.12.09-4.75,11.08,2.14,27.32,13.29,32-.69,2.82-1.25,5.67-1.69,8.53l9.47.53c1,.06,2.13,0,2.71-.75a2.91,2.91,0,0,0,.42-1.7c.09-2,.17-4,.26-6l.72-.22c6-2.05,10.26-7.66,12-13.73S295.61,200.19,294.36,194Z"/><path class="cls-5" d="M291.77,199.63c3.26,6.21,1.24,13.73-.55,20.16-1.6,5.71-1.88,9.35,4.6,9.75,3.66.23,10.16.71,12.81-2.49,2-2.43-.35-8.52-1.9-10.84-1.18-1.78-3.64-2.37-4.77-4.17a6.83,6.83,0,0,1-.82-2.49,35.68,35.68,0,0,1-.27-10.72,36.28,36.28,0,0,0,.68-7.26c-.27-3.52-3.39-7.16-5.2-10.14-3.38-5.55-13-12.14-19.27-6.34a10.4,10.4,0,0,0-2.54,5.15,8.53,8.53,0,0,0-.38,3.43c.69,4.56,5,4.65,8.21,6.35A23.15,23.15,0,0,1,291.77,199.63Z"/><path class="cls-5" d="M258.86,206.12c.27,3.27,2.55,6.58,1.22,9.58a14.77,14.77,0,0,1-2.77,3.37,11.58,11.58,0,0,0-2.28,11.2l-19.51,2.42a5.92,5.92,0,0,1-2.93-.13c-2-.79-2.46-3.28-2.68-5.38-.45-4.13-.83-8.57,1.19-12.2.94-1.69,2.35-3.08,3.28-4.77,4.49-8.11-3.12-19.82,2.8-27,2.64-3.19,7.07-4.12,10.59-6.3,6.13-3.8,9.34-11.32,15.7-14.72,12-6.41,26.91,7.1,21.22,19.68C280.05,192.17,257.78,193,258.86,206.12Z"/><path class="cls-3" d="M260.57,233.47S251.66,359.2,271.18,384s27.87,34.13,27.87,34.13l-79.84,33.25S199,278.1,260.57,233.47Z"/><polygon class="cls-5" points="242.17 583.64 229.05 596.76 235.61 603.32 255.29 591.29 255.29 582.7 242.17 583.64"/><polygon class="cls-5" points="319.32 581.46 335.03 583.5 349.25 596.02 340.1 599.7 319.59 593.47 319.32 581.46"/><polygon class="cls-6" points="737.58 583.67 737.79 585.91 738.51 593.36 753.58 599.82 760.04 591.88 752.15 584.93 751.42 584.61 751.33 585.54 737.58 583.67"/><path class="cls-7" d="M736.81,583.57l.77.1-.5-5.2,14.34,6.14L763.35,459l1.47-5.94c-11.27.17-24.67.33-38.17.44Z"/><polygon class="cls-8" points="737.58 583.67 751.33 585.54 751.42 584.61 737.08 578.47 737.58 583.67"/><path class="cls-7" d="M676.55,453.39l2.77,32.89,27.83,85.28,13.59-1.81.22,1.67H721l-10-87.89,8.58-30C703.82,453.6,688.39,453.59,676.55,453.39Z"/><polygon class="cls-6" points="707.14 571.56 706.29 571.67 700.07 580.21 708.3 586.82 721.75 577.33 720.96 571.42 707.68 573.19 707.14 571.56"/><polygon class="cls-9" points="707.14 571.56 707.68 573.19 720.96 571.42 720.74 569.75 707.14 571.56"/><path class="cls-10" d="M770.83,262.12c1.75,8.23,8.26,14.27,14.62,20a345.87,345.87,0,0,0-14.24-31.81A28.07,28.07,0,0,0,770.83,262.12Z"/><path class="cls-11" d="M795.58,318.32a22.36,22.36,0,0,1-5.57,4.2c-5.22,2.79-11.26,3.66-17.18,3.66-4.73,0-9.53-.55-14.15.46s-9.21,4-10.37,8.61c-.65,2.54-.44,5.72-2.63,7.14a6.67,6.67,0,0,1-3.54.76c-3.75.11-8,0-10.52-2.76-3.89-4.3-1.62-12.93-6.88-15.37-1.54-.72-3.32-.6-5-.89-7.12-1.2-10.6-9.25-9.92-16.64a18.4,18.4,0,0,1,1-4.45c2.94-8.2,9.75-14.29,14.91-21.31,10.07-13.71,16.89-32,10.69-48.25a42.43,42.43,0,0,1-1.64-4.63,10.73,10.73,0,0,1-.39-2.64c-.09-4.84,3.51-8.82,5.83-13.07a13.22,13.22,0,0,0,.62-1.25,23.31,23.31,0,0,0,1.19-3.54l-1,.48a16.17,16.17,0,0,1-8,3.79l-27.91,13.3-11.19,45.57-7.68,31.26-.12.46-28.86,149.3c3.44.44,10.33.72,19.28.88,11.84.2,27.27.21,43.05.11l7-.05c13.5-.11,26.9-.27,38.17-.44,17.29-.25,29.58-.5,29.58-.5S804.9,375.35,795.58,318.32Z"/><path class="cls-12" d="M733,212.62a16.17,16.17,0,0,0,8-3.79Z"/><path class="cls-13" d="M734.35,171.85c-3-2.63-6.38-3.11-10.18-3.14-1.79,0-2.39.45-3.32.29a4.37,4.37,0,0,1-1.58-.7c-1.36-.84-2.57-3.06-3.21-4.86-3.52,2.23-6.08,6.25-6.79,12.37-.76,6.66-.75,13.68,1.53,20.34s7.15,12.93,13.47,15.4c.37.15.73.27,1.1.39a16.13,16.13,0,0,0,7.66.68l8-3.79c.4-.34.78-.69,1.16-1.07C744.76,196.43,741.93,178.53,734.35,171.85Z"/><path class="cls-6" d="M788.07,284.46l-2.62-2.35c.58,1.48,1.15,3,1.73,4.51s1.14,3.08,1.71,4.65q.54,1.51,1.05,3.09-.51-1.58-1.05-3.09-.85-2.36-1.71-4.65c-.58-1.52-1.15-3-1.73-4.51-6.36-5.72-12.87-11.76-14.62-20a28.07,28.07,0,0,1,.38-11.82c1.35-6.32,3.9-12.66,4.57-19.12,1.14-11.07.24-27-2.46-37.8-2.89-11.57-9.19-22-16.74-31.16-9.17-11.07-26.2-23.45-38.27-9-.14.16-.27.33-.4.51a22.41,22.41,0,0,0-4.1-1.58c-8.34,7-10.48,18.32-9.61,28.71s6.13,22.19,3.17,32.51a10.89,10.89,0,0,0-.65,3,2.65,2.65,0,0,0,1.46,2.51A3.73,3.73,0,0,0,710,219c5.1-.66,10.65-1.54,14.11-5.35a9.2,9.2,0,0,0,1.23-1.7c-.37-.12-.73-.24-1.1-.39-6.32-2.47-11.19-8.73-13.47-15.4s-2.29-13.68-1.53-20.34c.71-6.12,3.27-10.14,6.79-12.37.64,1.8,1.85,4,3.21,4.86a4.37,4.37,0,0,0,1.58.7c.93.16,1.53-.3,3.32-.29,3.8,0,7.2.51,10.18,3.14,7.58,6.68,10.41,24.58,7.8,35.91,7.14-7.12,10-20.36,5.3-30.25-.27-.56-.55-1.11-.85-1.65.3.54.58,1.09.85,1.65,4.7,9.89,1.84,23.13-5.3,30.25,0,.2-.1.39-.14.59a23.31,23.31,0,0,1-1.19,3.54,13.22,13.22,0,0,1-.62,1.25c-2.32,4.25-5.92,8.23-5.83,13.07a10.73,10.73,0,0,0,.39,2.64,42.43,42.43,0,0,0,1.64,4.63c6.2,16.23-.62,34.54-10.69,48.25-5.16,7-12,13.11-14.91,21.31a18.4,18.4,0,0,0-1,4.45c-.68,7.39,2.8,15.44,9.92,16.64,1.67.29,3.45.17,5,.89,5.26,2.44,3,11.07,6.88,15.37,2.52,2.77,6.77,2.87,10.52,2.76a6.67,6.67,0,0,0,3.54-.76c2.19-1.42,2-4.6,2.63-7.14,1.16-4.58,5.74-7.59,10.37-8.61s9.42-.47,14.15-.46c5.92,0,12-.87,17.18-3.66a22.36,22.36,0,0,0,5.57-4.2q-.3-1.83-.63-3.63.33,1.8.63,3.63a17.94,17.94,0,0,0,4.93-9.34C802.12,299.54,795.15,290.91,788.07,284.46ZM734.18,163.9a28,28,0,0,1,2.89,1.67A28,28,0,0,0,734.18,163.9Z"/><polygon class="cls-13" points="628.76 191.83 624.78 184.64 626.9 177.71 625.66 176.52 624.13 177.99 624.24 171.73 621.06 167.76 614.32 168.13 609.05 172.71 610.12 179.37 615.19 185.59 620.21 195.67 628.76 191.83"/><polygon class="cls-11" points="627.99 186.1 615.97 189.17 641.97 251.77 700.53 262.09 708.82 227.96 656.57 221.71 627.99 186.1"/><polygon class="cls-5" points="161.31 406.08 156.26 475.11 139.56 589.39 126.72 589.39 118.61 483.94 115.02 398.63 161.31 406.08"/><polygon class="cls-6" points="126.79 587.86 126.79 594.81 140.68 601.75 147.63 594.81 140.68 587.86 126.79 587.86"/><polygon class="cls-5" points="70.34 389.81 75.22 486.57 86.39 597.65 99.55 597.65 110.24 492.41 125.86 381.64 70.34 389.81"/><polygon class="cls-6" points="99.47 596.08 99.47 603.2 85.25 610.31 78.14 603.2 85.25 596.08 99.47 596.08"/><path class="cls-13" d="M115.17,234.68l-13.46-1.32a67.89,67.89,0,0,1,.71-10.75c-3.74-1.31-8.06-3.27-8.72-7.18a11.1,11.1,0,0,1,.21-3.72q1.32-7.64,2.62-15.27a13.52,13.52,0,0,1,1.58-5.08c1.67-2.64,4.93-3.81,8-4.35,7.87-1.37,16.46.32,22.57,5.47a12.2,12.2,0,0,1,3.82,5c1.11,3.09.28,6.5-.54,9.67-.77,2.93-1.53,5.86-2.3,8.79-.88,3.37-2.15,7.2-5.39,8.47-1.73.67-3.76.48-5.32,1.47C116.22,227.66,116.6,231.75,115.17,234.68Z"/><path class="cls-6" d="M146.68,182.67a36.46,36.46,0,0,0-.26-11.66c-.5-2.38-3.55-9.89-2.62-12-1.73,3.67-6.41,4.69-10.45,5.09-15.15,1.51-32-2.23-46,5.54a18.07,18.07,0,0,0-6.15,6.08,27.08,27.08,0,0,0,0,28.65,39,39,0,0,0,4.22,5.31c3.18,3.44,7,7.69,11.35,9,.1-3.91-3.47-16.23-.48-19.44,4.21-4.5,11.87-3.62,17.33-2.85a80.2,80.2,0,0,0,20.94.11,24.63,24.63,0,0,0,6.71-1.42c5.07-2.12,4.9-6.83,5.35-11.64C146.63,183.16,146.66,182.92,146.68,182.67Z"/><polygon class="cls-13" points="20.35 328.61 19.39 337.08 24.16 342.88 23.44 344.51 21.39 343.71 23.97 349.66 22.51 354.71 15.9 357.04 9.04 354.73 7.43 347.93 9.82 339.97 10.63 328.33 20.35 328.61"/><polygon class="cls-14" points="21.88 334.41 9.15 336.23 9.27 265.98 83.3 233.02 82.96 271.25 38.9 287.6 21.88 334.41"/><polygon class="cls-13" points="174.23 146.41 174.67 137.91 169.55 132.41 170.16 130.73 172.26 131.41 169.31 125.63 170.47 120.49 176.91 117.77 183.9 119.64 185.93 126.33 184.04 134.43 183.94 146.1 174.23 146.41"/><polygon class="cls-14" points="172.34 140.72 184.93 138.12 185.93 186.56 180.98 223.99 148.79 271.25 122.43 233.11 153.03 210.62 172.34 140.72"/><polygon class="cls-14" points="125.83 231.22 83.3 233.02 61.83 314.74 44.1 428.02 180.98 431.35 148.79 271.25 125.83 231.22"/><polygon class="cls-6" points="585.87 579.42 586.92 587.55 571.69 597.78 562.51 590.69 569.6 581.51 584.82 571.29 585.87 579.42"/><polygon class="cls-6" points="586.38 576.69 574.64 472.95 588.77 356.81 585.59 332.11 522.5 329.71 520.23 369.92 530.82 473.11 570.66 581.99 586.38 576.69"/><polygon class="cls-7" points="516.58 214.93 484.85 223.57 448.14 288.6 465.53 304.7 490 275.73 516.58 214.93"/><polygon class="cls-6" points="476.21 341.34 476.04 446.02 497.12 580.79 512.28 580.64 520.62 456.01 540.13 331.27 476.21 341.34"/><polygon class="cls-6" points="512.26 587.04 495.94 595.4 487.66 587.28 495.78 579 512.18 578.84 512.26 587.04"/><path class="cls-7" d="M595.3,376.94c-.15-4.54-.4-8.32-.43-9.67-.33-12.17-1.41-24.32-2.94-36.4-1.36-10.83-3.09-37.71-4.94-48.47-1.53-8.88-6.86-31.06-10.71-39.3-9.58-20.5-6.62-22.39-48.7-28.48-18.45-2.67-22.81,8.83-37.88,22-1.49,1.3-1.41,9.06-1.75,11.12-.61,3.62-1.26,7.23-2,10.83-.59,2.82-1.23,5.64-2,8.44h0s-12.66,57.6-21,69.84-25.66,29.33,3.27,39.78a103.64,103.64,0,0,0,15.62,4.07s23.66-2.63,35.82-2.54a207.44,207.44,0,0,1,33.48,3.12c7.36,1.23,14.88,3,21.47,6.46,6.29,3.29,10.82,8.12,17.2,11.52a3.33,3.33,0,0,0,2,.56C595.43,399.36,595.6,386.49,595.3,376.94Z"/><polygon class="cls-15" points="505.76 307.24 520.81 311 522.7 304.64 512.96 299.79 515.25 297.19 501.98 295.54 499.13 301.89 505.76 307.24"/><polygon class="cls-16" points="502.19 308.1 506.11 292.3 468.79 278.53 448.14 288.6 454.5 307.96 502.19 308.1"/><path class="cls-13" d="M527.53,220.4c2.12,1,7.13,1.43,12.36-.62a2.74,2.74,0,0,0,1.75-2.56,71.7,71.7,0,0,0-.76-9.49c3.92-1.38,8.45-3.45,9.13-7.55a11.66,11.66,0,0,0-.23-3.9l-2.76-16a14.22,14.22,0,0,0-1.67-5.32c-1.76-2.77-5.17-4-8.41-4.55-8.26-1.43-17.25.36-23.66,5.77a12.82,12.82,0,0,0-4,5.27c-1.16,3.24-.3,6.81.58,10.13q1.2,4.62,2.42,9.22c.92,3.53,2.26,7.54,5.67,8.87,1.8.7,3.94.49,5.57,1.54C526.42,213,526,217.33,527.53,220.4Z"/><path class="cls-6" d="M479.87,167.22a33.9,33.9,0,0,0-2.67-3.82c-2.11-2.62-4.72-4.85-6.43-7.75s-2.3-6.83-.26-9.5c1.32-1.72,3.46-2.58,5.55-3.19a40.17,40.17,0,0,1,21.18-.39c6.6,1.68,12.51,4.46,19.15,2,6.24-2.33,10.75-1.38,17.27.94,7.06,2.52,16.53,3.12,22.92,6.67a18.93,18.93,0,0,1,6.46,6.37,28.4,28.4,0,0,1,.08,30,40.2,40.2,0,0,1-4.42,5.57c-3.33,3.62-7.32,8.08-11.9,9.41-.11-4.09,3.63-17,.48-20.37-5-5.33-16.29-3.47-22.48-2.16-6.76,1.43-12.78,6.21-19.48,7.24-4.83.73-11-1.63-15.08-4.12C485.18,181.05,482.83,172.08,479.87,167.22Z"/><polygon class="cls-7" points="562.51 222.5 588.77 245.5 618.34 308.1 574.71 308.37 562.51 222.5"/><path class="cls-17" d="M507,228.34c-33.49-1.05-74.58,18.84-83.18,47.83-11.43-28-63.49-43-96.71-38.58-87.68,11.56-112.58,111.22-72,175.37,21.86,34.53,52.28,64.16,85.17,90.49,27.54,22.05,98,68.2,98.24,68,.21.16,65.77-52.78,91-77.45,30.11-29.47,57.43-62,75.74-98.51C639.29,327.63,595.37,231.12,507,228.34Z"/><path class="cls-18" d="M778.28,246c-18.83-.59-41.92,10.59-46.75,26.88-6.43-15.73-35.68-24.14-54.35-21.68-49.28,6.5-63.27,62.5-40.45,98.56,12.29,19.41,29.38,36.06,47.87,50.85C700.07,413,739.69,439,739.81,438.85c.12.09,37-29.66,51.13-43.53,16.92-16.56,32.27-34.83,42.57-55.36C852.63,301.81,828,247.58,778.28,246Z"/><path class="cls-17" d="M129.28,255.76c-14.23-3.82-33.82.58-40.41,12.12C86.78,254.75,66,243.12,51.34,241.66,12.64,237.8-8,278,2.92,309.52c5.89,17,15.94,32.72,27.38,47.29,9.57,12.2,35.12,39,35.23,39s33.46-16,46.73-24c15.84-9.59,30.8-20.76,42.31-34.57C176,311.55,166.85,265.82,129.28,255.76Z"/><path class="cls-17" d="M653.61,53.85c-12.94.59-28.18,9.48-30.63,20.91-5.25-10.44-25.75-14.67-38.42-12C551.11,69.84,544.48,109,562,132.5c9.45,12.66,22.06,23.17,35.52,32.34,11.26,7.67,39.81,23.36,39.88,23.29s23.78-22.3,32.76-32.56c10.72-12.25,20.28-25.59,26.25-40.22C707.55,88.18,687.75,52.29,653.61,53.85Z"/><path class="cls-18" d="M283.59,14.82c-15.73-4-37.27,1-44.39,13.86-2.46-14.45-25.51-27-41.69-28.45C154.81-3.55,132.52,41,145,75.61c6.7,18.64,18,35.87,30.75,51.79,10.71,13.33,39.19,42.6,39.31,42.54.08.1,36.68-18,51.21-27.05,17.35-10.77,33.7-23.27,46.22-38.62C335.72,75.74,325.12,25.46,283.59,14.82Z"/><polygon class="cls-3" points="256.6 233.47 232.33 246.95 188.06 322.92 193.53 337.68 260.75 368.29 269.83 354.62 220.88 319.04 255.29 271 256.6 233.47"/><polygon class="cls-1" points="268.39 356.8 282.07 362.82 284.26 378.67 276.06 380.86 263.58 364.04 268.39 356.8"/><polygon class="cls-13" points="778.28 246.01 789.22 238.91 800.74 244.93 799.44 255.29 785.45 255.29 778.28 246.01"/><polygon class="cls-13" points="597.82 309.92 608.76 302.82 620.28 308.84 618.98 319.19 604.99 319.19 597.82 309.92"/><polygon class="cls-13" points="464.81 231.73 475.75 224.62 487.28 230.64 485.97 241 471.98 241 464.81 231.73"/><polygon class="cls-1" points="312.19 239.91 323.14 232.81 334.66 238.83 333.35 249.19 319.36 249.19 312.19 239.91"/></g></g></svg>