<svg xmlns="http://www.w3.org/2000/svg" xmlns:xlink="http://www.w3.org/1999/xlink" viewBox="0 0 639.8 508.25"><defs><style>.cls-1,.cls-12,.cls-14,.cls-17,.cls-19,.cls-23,.cls-27,.cls-33,.cls-37,.cls-42,.cls-43,.cls-44,.cls-45,.cls-5,.cls-6{fill:none;}.cls-2{isolation:isolate;}.cls-3{opacity:0.45;}.cls-4{fill:#d2def9;}.cls-27,.cls-5,.cls-6{stroke:#fff;}.cls-19,.cls-23,.cls-27,.cls-37,.cls-42,.cls-43,.cls-44,.cls-45,.cls-5{stroke-miterlimit:10;}.cls-44,.cls-45,.cls-5,.cls-6{stroke-width:1.5px;}.cls-12,.cls-14,.cls-17,.cls-33,.cls-6{stroke-linejoin:round;}.cls-7{fill:#e9f1ff;}.cls-8{fill:#f777ba;}.cls-9{fill:#0b0b3a;}.cls-10{fill:#18277a;}.cls-11{fill:#212237;}.cls-12,.cls-14{stroke:#cc328a;}.cls-12,.cls-19,.cls-33,.cls-37,.cls-42,.cls-43{stroke-width:0.75px;}.cls-13{fill:#ff855a;}.cls-14,.cls-17{stroke-width:0.5px;}.cls-15{fill:#fff;}.cls-16{fill:#00276f;}.cls-17{stroke:#00276f;stroke-linecap:round;}.cls-18{fill:#ff9357;}.cls-19{stroke:#a52f2d;}.cls-20{fill:#83a3fc;}.cls-21{clip-path:url(#clip-path);}.cls-22{opacity:0.19;mix-blend-mode:screen;}.cls-23,.cls-44{stroke:#91abe5;}.cls-23,.cls-27{stroke-width:11px;}.cls-24{fill:#ffc7ca;}.cls-25{clip-path:url(#clip-path-2);}.cls-26{opacity:0.25;}.cls-28{fill:#b5c8f7;}.cls-29{clip-path:url(#clip-path-3);}.cls-30{fill:#9fbfff;}.cls-31{clip-path:url(#clip-path-4);}.cls-32{opacity:0.35;}.cls-33{stroke:#1a3987;}.cls-34{fill:#ffe1ad;}.cls-35{fill:#cc328a;}.cls-36{fill:#2a2a68;}.cls-37{stroke:#5565aa;}.cls-38{fill:#2e7efa;}.cls-39{fill:#4376cf;}.cls-40{fill:#9cd0ff;}.cls-41{fill:#816fc2;}.cls-42{stroke:#4c3f89;}.cls-43{stroke:#d19b4b;}.cls-45{stroke:#ff9c94;}</style><clipPath id="clip-path"><path class="cls-1" d="M424.27,267.26a3,3,0,0,0-2.53,4.83,19.6,19.6,0,0,1,4.5,13.78c-.82,11.7-12.3,20.42-25.62,19.48S377.16,294.16,378,282.46a19.58,19.58,0,0,1,6.4-13,3,3,0,0,0-1.83-5.14L350.17,262A12.29,12.29,0,0,0,337,273.42l-2.21,31.34a3,3,0,0,0,4.71,2.63,19.36,19.36,0,0,1,12.63-3.65c11.7.83,20.42,12.31,19.48,25.63S360.46,352.83,348.76,352a19.4,19.4,0,0,1-12-5.38,3,3,0,0,0-5,1.93l-2.21,31.35A12.29,12.29,0,0,0,340.91,393l106.48,7.53a12.29,12.29,0,0,0,13.13-11.4l7.53-106.48a12.29,12.29,0,0,0-11.39-13.13Z"/></clipPath><clipPath id="clip-path-2"><path class="cls-1" d="M294.8,216.41C283.16,215,275.08,203,276.74,189.77s12.45-22.82,24.09-21.36a19.51,19.51,0,0,1,12.31,6.73,3,3,0,0,0,5.19-1.61l4-31.83A12.3,12.3,0,0,0,311.66,128L205.75,114.66A12.29,12.29,0,0,0,192,125.32L178.71,231.24A12.29,12.29,0,0,0,189.37,245L221.73,249a3,3,0,0,0,2.78-4.71,19.62,19.62,0,0,1-3.86-14.17c1.46-11.64,13.39-19.72,26.65-18.06s22.81,12.45,21.35,24.09A19.71,19.71,0,0,1,261.4,249a3,3,0,0,0,1.52,5.24l32.36,4.07A12.3,12.3,0,0,0,309,247.62l4-31.84a3,3,0,0,0-4.63-2.83A19.47,19.47,0,0,1,294.8,216.41Z"/></clipPath><clipPath id="clip-path-3"><path class="cls-1" d="M448.88,121.09,342.14,120a12.3,12.3,0,0,0-12.42,12.17l-.33,31.59A3,3,0,0,1,324.5,166,19.44,19.44,0,0,0,312,161.15c-11.73-.12-21.35,10.61-21.49,24s9.26,24.28,21,24.41A19.51,19.51,0,0,0,324.09,205a3,3,0,0,1,4.85,2.35l-.33,31.59a12.29,12.29,0,0,0,12.16,12.42l32.66.34a3,3,0,0,1,2.11,5,19.68,19.68,0,0,0-5.78,13.57c-.12,11.72,10.61,21.34,24,21.48s24.29-9.25,24.41-21a19.66,19.66,0,0,0-5.49-13.68,3,3,0,0,1,2.21-5l32.66.34a12.3,12.3,0,0,0,12.42-12.17L461,133.51A12.28,12.28,0,0,0,448.88,121.09Z"/></clipPath><clipPath id="clip-path-4"><path class="cls-1" d="M330.9,302.72a19.5,19.5,0,0,0-12.64,5.73,3,3,0,0,1-5-2l-1.78-31.9a12.3,12.3,0,0,0-13-11.59L266,264.81a3,3,0,0,1-2.45-4.88,19.62,19.62,0,0,0,4.77-13.79c-.66-11.71-12-20.6-25.34-19.85s-23.62,10.84-23,22.55A19.58,19.58,0,0,0,226.28,262a3,3,0,0,1-1.89,5.12L191.89,269a12.29,12.29,0,0,0-11.58,13l6,106.58a12.29,12.29,0,0,0,13,11.58l106.58-6a12.29,12.29,0,0,0,11.59-13l-1.79-31.9a3,3,0,0,1,4.79-2.53,19.53,19.53,0,0,0,13.2,4.29c11.7-.66,20.59-12,19.84-25.34S342.61,302.06,330.9,302.72Z"/></clipPath></defs><title>Asset 4</title><g class="cls-2"><g id="Layer_2" data-name="Layer 2"><g id="OBJECTS"><g class="cls-3"><path class="cls-4" d="M12.67,102s.13,0,.16,0H85.49c11.43,0,15-.37,26.37,0,.13-7-1.83-13.68-5.2-17.23a12.32,12.32,0,0,0-11.41-3.49c-4.92,1.3-8.26,4.6-11.45,7-1.13-9.7-5.14-18.53-9.44-20.46C67,64.53,59.2,69.79,55.72,74.9a31.89,31.89,0,0,0-5,14.28c-4.65-5.14-15.06-9.06-18.81-.91-1.47,3.21-1.35,6.89-1.2,10.41A21.63,21.63,0,0,0,12.67,102Z"/></g><g class="cls-3"><path class="cls-4" d="M547.76,39.18c-1.4-5.7-14.63-14-21.7-9-2.17-10.84-4.2-17.6-11.29-22.94S495.85,8.9,494,23.51c-1.89-6-11.56-14.11-19.32-7.28-7.18,6.32-7.9,16.91-7.15,23Z"/></g><g class="cls-3"><path class="cls-4" d="M639.8,114.9c-2.19-5.39-6.32-8.28-11.21-8.82-6.16-.69-12.41,2.85-12.41,2.85s2.32-8.9-.83-15.9c-2.14-4.78-5.56-9.27-10.3-10.45-4.91-1.22-10.12,1.17-13.78,5s-6,8.81-8.12,13.82c-1.09-3.56-2.53-7.54-5.74-8.86s-7.16,1-8.9,4.37-1.83,7.46-1.59,11.33c-3.85-2.31-8.76-3-12.62-.68a10.26,10.26,0,0,0-4.6,7.38Z"/></g><path class="cls-4" d="M194.14,236.56c-20.19-6.91-37.82-20.45-50.95-37.27s-27.92-53.74-25.38-84.89c58.18,17.26,81.79,71.29,85.31,104.06"/><path class="cls-5" d="M117.81,114.4s9.58,75,76.83,116.37"/><path class="cls-5" d="M117.81,114.4S157.5,185.51,201,228.76"/><path class="cls-5" d="M117.81,114.4s58.6,46.53,85.91,110.22"/><path class="cls-4" d="M194.34,360.4c-23,8.56-48.37,8.84-72,2.57s-62.84-30.58-82.42-62.41c56.2-19.13,123.59,6.86,149.77,35.68"/><path class="cls-6" d="M39.94,300.56s61.25,64.79,150.79,53.9"/><path class="cls-6" d="M39.94,300.56S125.55,339,195,347.74"/><path class="cls-6" d="M39.94,300.56s85.36.55,154.63,41.15"/><path class="cls-7" d="M215.91,202.65c-19.48-14.47-33.34-35.34-40.85-58.29s-8.43-68.55,7.43-101.89c46.08,36.3,60.78,106.15,50.95,143.36"/><path class="cls-6" d="M182.49,42.47s-20.78,85.62,36.4,154"/><path class="cls-6" d="M182.49,42.47s14.2,91.62,44.29,154"/><path class="cls-6" d="M182.49,42.47s45.44,71.06,49,150.33"/><path class="cls-4" d="M392.31,191.91c19.64-3.74,37.79-14,52.2-27.81s33-46.14,34.79-75.36C423.06,97,394,144,386.38,173.93"/><path class="cls-6" d="M479.3,88.74S460.48,157,392.61,186.47"/><path class="cls-6" d="M479.3,88.74s-46.24,60.68-92.31,95"/><path class="cls-6" d="M479.3,88.74S418.79,124.12,385,179.56"/><path class="cls-4" d="M447.28,350.55c28.73,5.45,58.9,1.29,86-9.83s69.7-45.05,87.79-83.86c-81-18.92-145.74,29.4-172.16,66"/><path class="cls-6" d="M621,256.86s-62.25,82.77-170.41,86.45"/><path class="cls-6" d="M621,256.86s-85.21,56.93-172.48,73"/><path class="cls-6" d="M621,256.86s-101.33,15.66-177,73"/><path class="cls-7" d="M366.93,184.26c24.73-10.64,45-29.63,59-52.48S452.6,59.93,444,19.87c-59,27.4-92.79,99.05-91.71,141.73"/><path class="cls-6" d="M444,19.87s.52,97.76-78.72,156.94"/><path class="cls-6" d="M444,19.87s-38.78,95.29-87.22,154.88"/><path class="cls-6" d="M444,19.87S376.76,85,352.59,169.62"/><path class="cls-7" d="M190.36,322.69c-13.39,2.08-36.17,5.19-48.77-3.22-7-4.65-8.24-13.24-11-20.8-4.66-12.95-14.23-20.56-26.92-22.77-5.08-.89-10.45-3.18-12.89-8-3.62-7.23.84-16.52-2.07-24.09-1.56-4.07-5-6.95-7.76-10.19-6.76-7.83-8.44-19.42-8.44-19.42a31.86,31.86,0,0,0,17.34-.27c5.88-1.84,12.26-3,18.44-2,4.83.76,8.46,3.29,11.65,7.13,3.75,4.52,6.9,7.93,12.32,9.81,8.37,2.9,29.12-4.11,31.39,7.9.62,3.27-.15,6.81,1.36,9.87,2.73,5.55,9.34,2.73,13.85,4.14,6.92,2.17,14.5,7.16,17.47,13.66,7.08,15.5,6.75,36.87,2.76,53.71"/><path class="cls-6" d="M73.38,214.39C96,238.8,130.15,248,152.16,273c6.61,7.5,11.9,16.19,18.13,24.05s13.72,15.06,22.9,18.15"/><path class="cls-6" d="M89.07,261.14c11.81,1.27,29.72,1,47.51-2.37,0,0-4.35-22.9-8-31.66"/><path class="cls-6" d="M89.46,253.51c13,.94,23.87.17,39-.45"/><path class="cls-6" d="M87.58,241.84a145.8,145.8,0,0,0,21.07-1"/><path class="cls-6" d="M76.72,227.06c.08.16,3.54.57,11.49.45"/><path class="cls-6" d="M104.19,238.14c.09.06-5.17-16.2-9.28-25.47"/><path class="cls-6" d="M125.39,251.07c-.07,0-5.21-25.77-10.27-36.52"/><path class="cls-6" d="M115.2,279.86c.4.22,22.63,1.7,40.88-2.16"/><path class="cls-6" d="M150.54,271.16s-2.27-27.5-5.83-41.55"/><path class="cls-6" d="M168.18,247.44c2.59,16.95,2.94,50.6,2.94,50.6s-28.63,3.88-40.49.63"/><path class="cls-6" d="M183.37,310s1-38.08-1.22-58"/><path class="cls-6" d="M132.73,306.22s23.07,3.26,42.53-3.45"/><path class="cls-6" d="M188.11,313s6.64-30.06,1.77-56.46"/><path class="cls-7" d="M374.76,159c6.09-15.74,16-31.3,9.9-48.68-3.36-9.6-13.64-13.65-21.5-18.83-13.46-8.87-19.47-22.38-18.48-38.34.4-6.38-.71-13.47-5.57-17.64-7.22-6.19-19.05-3.09-26.87-8.5-4.21-2.91-6.55-7.74-9.46-11.94C295.74,4.92,283,0,283,0a42.09,42.09,0,0,1-5.12,21c-3.72,6.68-6.8,14.14-7.4,21.89-.47,6.06,1.41,11.09,4.9,15.91,4.11,5.68,7.12,10.36,7.75,17.4,1,10.88-12.77,34.32.3,40.07,3.55,1.57,7.8,1.51,10.86,4.1,5.56,4.7.52,12,.88,17.84.55,8.95,4.13,19.38,10.71,24.6,15.7,12.45,40.14,17.35,60.44,16.7"/><path class="cls-6" d="M283,1.07c21.55,33.47,22.5,77.24,44.87,110.18,6.71,9.88,15.15,18.46,22.37,28s13.35,20.4,14.33,32.3"/><path class="cls-6" d="M316.05,88.81s-24.89-11-33.85-17.6"/><path class="cls-6" d="M323.13,30.3c-2.53,16-6.43,29-11.34,47.24"/><path class="cls-6" d="M310.35,25.13a195.65,195.65,0,0,1-7,25.32"/><path class="cls-6" d="M296.52,8.27c.16.13-.33,4.44-2.68,14.05"/><path class="cls-6" d="M301.53,44.37c0,.11-17-10.3-26.45-17.59"/><path class="cls-6" d="M310.37,73.32c0-.11-27.91-12.73-38.77-21.54"/><path class="cls-6" d="M344.08,44.37c-2.42,9.24-7.08,33.17-20.95,57"/><path class="cls-6" d="M326.29,108.83s-30.71-9.58-45.73-17.39"/><path class="cls-6" d="M361.41,158.33s-43.68-8.22-65.77-15.9"/><path class="cls-6" d="M371.19,95.92s-2.7,28.82-15.74,50.78"/><path class="cls-7" d="M462.64,296.65c17.38-3.35,36.71-3.23,48.76-18.31,6.66-8.35,4.53-19.73,4.75-29.6.39-16.89,9-29.76,23.76-37.77,5.89-3.2,11.57-8.14,12.57-14.77,1.47-9.87-7.87-18.64-7.42-28.61.24-5.36,3.23-10.13,5.34-15.06,5.1-11.91,2.37-26,2.37-26a44.23,44.23,0,0,1-21.5,7.14c-8,.41-16.34,1.84-23.56,5.62-5.64,3-9.06,7.42-11.4,13.21-2.76,6.82-5.23,12.1-11.14,16.59-9.12,6.92-37.6,7.77-35.43,22.58.59,4,3,7.77,2.41,11.93-1.07,7.56-10.38,7.16-15.35,10.72-7.64,5.47-14.92,14.46-15.89,23.22-2.31,20.88,6.95,45.32,18.84,63"/><path class="cls-6" d="M551.83,127.17C534.1,165,495.75,190.19,479,228.4c-5,11.47-8,23.74-12.39,35.46s-10.68,23.23-20.71,30.73"/><path class="cls-6" d="M551.85,187.7c-14,6.54-36.23,13.92-59.56,17.69,0,0-4.12-28.22-3.22-39.87"/><path class="cls-6" d="M548.21,179.09c-15.61,6.66-29.35,10.45-48.27,16.25"/><path class="cls-6" d="M545.69,164.86a204.89,204.89,0,0,1-26.38,7.91"/><path class="cls-6" d="M553,143.18c0,.22-4.13,2.18-14,5.45"/><path class="cls-6" d="M523.68,167.74c-.08.1-.34-20.87.89-33.29"/><path class="cls-6" d="M502.89,191.72c.08-.09-4.24-31.88-2.46-46.43"/><path class="cls-6" d="M527.38,220.48c-.39.42-27.19,11.68-51.29,15.07"/><path class="cls-6" d="M480.21,225.65s-8.59-32.62-10-50.31"/><path class="cls-6" d="M448.64,205.94c3.83,20.61,17.32,59.47,17.32,59.47s36.92-7.84,50.19-16.67"/><path class="cls-6" d="M455.82,284.42s-17-43.38-22.53-67.28"/><path class="cls-6" d="M516.69,258.34s-27.1,13.66-53.87,14.3"/><path class="cls-6" d="M451.22,289.94s-20.64-31.73-25.56-64.2"/><path class="cls-8" d="M392.18,225.7c2.37,5,12,25.91,14.34,30.88-7.7,2.46-14.75,5.65-22.3,8.53-3.2,4.31,3.95-4.2,4.28-8.86"/><path class="cls-9" d="M408.71,263.47,404.35,265a17.57,17.57,0,0,0-.76-2.12,18.46,18.46,0,0,0-2.73,1.2,3.31,3.31,0,0,0-.48,1.24,2.21,2.21,0,0,1-1.39,1.53l-17.32,6c-2.14.74-3.38-1.76-1.53-3.8,1.68-1.85,5.33-5.87,5.51-6,7.13-1.7,18-6.88,19.32-10C407.28,254.24,408.72,263.41,408.71,263.47Z"/><path class="cls-8" d="M390.27,168.94c.39,11.32-.8,34,.74,43.65,1,6.06,11.88,36.19,11.88,36.19l-14.39,7.47s-12.34-19.06-19.36-41.58c-4.56-14.6-4.91-30.68-4.91-43.9"/><path class="cls-8" d="M427.85,202.32c4,3.73,20.72,19.62,24.77,23.35-6.24,5.14-11.61,10.72-17.55,16.2-1.38,5.18,2.11-5.37.68-9.82"/><path class="cls-9" d="M457.21,231.26l-3.49,3a17.55,17.55,0,0,0-1.5-1.68,18.81,18.81,0,0,0-2.09,2.13,3.46,3.46,0,0,0,0,1.33,2.18,2.18,0,0,1-.73,1.93l-13.87,12c-1.71,1.48-3.79-.38-2.83-3,.88-2.34,2.78-7.42,2.91-7.59,6-4.22,14.11-13,14.22-16.5C452.45,223.22,457.19,231.2,457.21,231.26Z"/><path class="cls-8" d="M413.81,147.6s-.87,33.35,3.71,41.84c5.41,10,23,25,23,25l-4.73,17.58s-24.64-13.76-37.51-30.3C388.47,189.2,388,149.54,388,149.54"/><path class="cls-10" d="M412.45,119.73c17.37,13.4,15.95,67,15.95,67s-19.31,5.07-35.08,5.07a246.4,246.4,0,0,1-32.2-2.51c1-46.12,9.14-58.11,13.75-66"/><path class="cls-11" d="M380,46.51s3.91,11.41,3.28,14.07S374,62.5,371.84,62.39c-.19-5.81,1.75-14,1.75-14"/><path class="cls-8" d="M381.36,59.94l.92,6.35s4.63,3,8.51,1.41c4.09-1.66,3.87-3.89,3.87-3.89l-4.91-11.65"/><path class="cls-8" d="M374.87,48.77c-.07,8.19,1.39,14.61,6.8,14.19,5.7-.43,9.93-5.12,7.89-11.51C387.41,44.74,375.35,44,374.87,48.77Z"/><path class="cls-12" d="M381.87,63.43a9.35,9.35,0,0,0,7.61-5.7"/><polygon class="cls-13" points="388.68 51.11 388.68 51.1 388.68 51.11 388.68 51.11"/><path class="cls-13" d="M388.65,51.11v.07s.07,0,.08,0v-.07s-.07,0-.07,0Z"/><path class="cls-11" d="M383.37,48.17c-4.63,1.22-7.91,1-11-.08.49-2.77,2.18-6.72,7.34-6.84a8.94,8.94,0,0,1,8.93-1.75A11.53,11.53,0,0,1,395.29,45c2.62,4.41,3.17,11.09,3.12,14.79a50.32,50.32,0,0,1-10,1.83C388.52,61.66,386.82,50.58,383.37,48.17Z"/><path class="cls-8" d="M386.08,53.64a1.43,1.43,0,0,1,.73-1.3c1.14-.68,2.23.67,2.34,1.9a3.3,3.3,0,0,1-.46,2.12c-.52.93-1.39,1.29-2.09.45"/><path class="cls-14" d="M379.13,53.14s-.95,3.12-.58,3.81,2.14.27,2.14.27"/><path class="cls-15" d="M379,58.67,384,58a3.18,3.18,0,0,1-2.94,2.92C379.09,61,379,58.67,379,58.67Z"/><path class="cls-16" d="M376.91,52.78a6.33,6.33,0,0,0-.05.76.4.4,0,0,0,.79,0,6.31,6.31,0,0,0-.07-.76c-.05-.32-.62-.33-.67,0Z"/><path class="cls-17" d="M378.15,51.31a1.28,1.28,0,0,0-1.84.3"/><path class="cls-16" d="M382.68,52.57c0,.22,0,.44,0,.67,0,.51.83.5.79,0a6.32,6.32,0,0,0-.11-.76c-.09-.4-.65-.27-.68.09Z"/><path class="cls-17" d="M382,50.8a2.39,2.39,0,0,1,2.65.29"/><path class="cls-8" d="M377.08,94.05c-15.72,21.84-47.81,41.46-47.81,41.46l-6.62-8.39s24-20.15,38.49-43.29"/><path class="cls-8" d="M325.47,124.9c-2.94,2.56-12.81,8.64-12.6,9.4s3.72-1.32,3.77-.67-5.09,4.23-4.66,5c.58,1,5.64-3,5.64-3s-5.3,4.58-4.54,5.29c.54.51,4.76-2.8,6.54-3.87-1.77,1.4-4.35,4-3.78,4.5s3.49-1.68,5.84-3.25c-1.36,1.11-3.72,3.26-3.21,3.76s8-4.36,14.91-9.2"/><path class="cls-12" d="M317.91,133.55s3.82.1,5.43-.7"/><path class="cls-18" d="M380.46,66.36c-6.86-1.24-13,3.67-15.66,7.94a128.78,128.78,0,0,0-8.34,15.36l16.16,9.73,9.2-28.91"/><path class="cls-18" d="M380.46,66.36c3.2.59,4,1.73,6.25,1A31.46,31.46,0,0,0,393.9,64c-2.67.18,8.73,2.26,17.45,11.46,2.93,10.09,3.27,20.12,4.12,46.75a73.32,73.32,0,0,1-40.6,1.12s-2.46-11.61-5.29-20.21c-3.93-7.93-2.23-16.81,2.16-24.06C371.89,74.65,380.46,66.36,380.46,66.36Z"/><polygon class="cls-15" points="393.59 61.26 386.18 67.54 390.92 72.58 395.83 65.12 393.59 61.26"/><polygon class="cls-15" points="386.18 67.54 381.99 64.25 380.46 66.36 382.47 72.43 386.18 67.54"/><path class="cls-19" d="M367.38,94.11C367.11,89,370.16,81,370.16,81"/><path class="cls-20" d="M448.27,401.34l-.93,0-106.48-7.53a13.05,13.05,0,0,1-12.09-13.93L331,348.5a3.71,3.71,0,0,1,3.73-3.46,3.77,3.77,0,0,1,2.57,1,18.58,18.58,0,0,0,11.53,5.18c.43,0,.86.05,1.28.05,10.8,0,19.94-9.66,20.81-22,.91-12.89-7.52-24-18.78-24.83-.43,0-.86,0-1.28,0A18.83,18.83,0,0,0,340,308a3.74,3.74,0,0,1-2.17.7,3.79,3.79,0,0,1-2.75-1.2,3.68,3.68,0,0,1-1-2.79l2.22-31.35a13.08,13.08,0,0,1,13-12.12c.31,0,.63,0,.94,0l32.38,2.29A3.73,3.73,0,0,1,384.9,270a19,19,0,0,0-6.17,12.51c-.79,11.27,9,21.18,21.94,22.09.64,0,1.28.07,1.92.07,12.1,0,22.16-8.28,22.91-18.85a19,19,0,0,0-4.35-13.26A3.73,3.73,0,0,1,424,266.5h.28l32.39,2.29a13.06,13.06,0,0,1,12.09,13.93l-7.53,106.49a13.08,13.08,0,0,1-13,12.12Z"/><path class="cls-15" d="M349.29,262c.3,0,.59,0,.88,0l32.39,2.29a3,3,0,0,1,1.83,5.14,19.58,19.58,0,0,0-6.4,13c-.83,11.7,9.3,22,22.63,22.89.66,0,1.32.07,2,.07,12.47,0,22.87-8.43,23.65-19.55a19.6,19.6,0,0,0-4.5-13.78,3,3,0,0,1,2.3-4.84h.23l32.39,2.29a12.29,12.29,0,0,1,11.39,13.13l-7.53,106.48a12.29,12.29,0,0,1-12.25,11.43l-.88,0L340.91,393a12.29,12.29,0,0,1-11.39-13.13l2.21-31.35a3,3,0,0,1,5-1.93,19.4,19.4,0,0,0,12,5.38c.45,0,.89.05,1.33.05,11.14,0,20.65-9.86,21.56-22.68.94-13.32-7.78-24.8-19.48-25.63-.45,0-.89,0-1.33,0a19.51,19.51,0,0,0-11.3,3.69,3,3,0,0,1-1.74.56,3,3,0,0,1-3-3.19L337,273.42A12.3,12.3,0,0,1,349.29,262m0-1.5h0a13.84,13.84,0,0,0-13.75,12.82l-2.22,31.35A4.42,4.42,0,0,0,334.5,308a4.57,4.57,0,0,0,3.3,1.44,4.45,4.45,0,0,0,2.6-.84,18.07,18.07,0,0,1,10.44-3.41c.41,0,.82,0,1.22,0,10.86.77,19,11.55,18.09,24-.84,11.93-9.65,21.28-20.06,21.28-.4,0-.82,0-1.23,0a17.91,17.91,0,0,1-11.07-5,4.47,4.47,0,0,0-7.55,2.92L328,379.79a13.79,13.79,0,0,0,12.79,14.74l106.48,7.52c.32,0,.66,0,1,0A13.84,13.84,0,0,0,462,389.27l7.53-106.48a13.81,13.81,0,0,0-12.79-14.74l-32.38-2.29H424a4.47,4.47,0,0,0-3.47,7.28,18,18,0,0,1,4.18,12.74c-.72,10.18-10.46,18.15-22.16,18.15-.62,0-1.25,0-1.87-.07a24.34,24.34,0,0,1-15.66-7,18.44,18.44,0,0,1-5.58-14.32,18,18,0,0,1,5.93-12,4.47,4.47,0,0,0-2.74-7.73l-32.39-2.29c-.33,0-.66,0-1,0Z"/><g class="cls-21"><g class="cls-22"><circle class="cls-23" cx="432.76" cy="425.76" r="60.86" transform="translate(-31.87 35.03) rotate(-4.47)"/><circle class="cls-23" cx="431.65" cy="424.34" r="38.45"/><circle class="cls-23" cx="432.76" cy="425.76" r="20.13" transform="translate(-96.14 127.73) rotate(-15.13)"/></g></g><path class="cls-24" d="M296.83,259.13a15,15,0,0,1-1.64-.1L262.83,255a3.73,3.73,0,0,1-1.91-6.57,18.64,18.64,0,0,0,2-27.49,25.07,25.07,0,0,0-15.73-8.05,27.21,27.21,0,0,0-3.36-.22c-11.54,0-21.19,7.58-22.45,17.62a19,19,0,0,0,3.72,13.63,3.65,3.65,0,0,1,.33,3.87,3.7,3.7,0,0,1-3.31,2.06,4,4,0,0,1-.49,0l-32.36-4.07A13,13,0,0,1,178,231.14l13.31-105.91a13.06,13.06,0,0,1,12.93-11.42,14.89,14.89,0,0,1,1.64.1l105.92,13.32a13,13,0,0,1,11.31,14.57l-4,31.83a3.71,3.71,0,0,1-3.72,3.27,3.62,3.62,0,0,1-2.77-1.27,18.64,18.64,0,0,0-11.84-6.47,17.19,17.19,0,0,0-2.27-.14c-10.47,0-19.49,9-21,20.84-1.61,12.82,6.19,24.4,17.4,25.81A18.52,18.52,0,0,0,308,212.33a3.64,3.64,0,0,1,2.08-.66,3.79,3.79,0,0,1,2.82,1.28,3.67,3.67,0,0,1,.89,2.93l-4,31.83A13.06,13.06,0,0,1,296.83,259.13Z"/><path class="cls-15" d="M204.2,114.56a11.63,11.63,0,0,1,1.55.1L311.66,128a12.3,12.3,0,0,1,10.67,13.73l-4,31.83a3,3,0,0,1-3,2.62,2.91,2.91,0,0,1-2.21-1,19.51,19.51,0,0,0-12.31-6.73,18.79,18.79,0,0,0-2.36-.14c-10.7,0-20.17,9.14-21.73,21.5C275.08,203,283.16,215,294.8,216.41a18.5,18.5,0,0,0,2.34.15A19.76,19.76,0,0,0,308.39,213a2.89,2.89,0,0,1,1.66-.53,3,3,0,0,1,3,3.36l-4,31.84a12.31,12.31,0,0,1-12.19,10.76,11.63,11.63,0,0,1-1.55-.1l-32.36-4.07A3,3,0,0,1,261.4,249a19.71,19.71,0,0,0,7.25-12.78c1.46-11.64-8.1-22.42-21.35-24.09a29.1,29.1,0,0,0-3.46-.22c-11.82,0-21.86,7.66-23.19,18.28a19.62,19.62,0,0,0,3.86,14.17,3,3,0,0,1-2.38,4.73l-.4,0L189.37,245a12.29,12.29,0,0,1-10.66-13.73L192,125.32a12.29,12.29,0,0,1,12.18-10.76m0-1.5h0a13.81,13.81,0,0,0-13.67,12.08L177.22,231.05a13.81,13.81,0,0,0,12,15.41l32.37,4.06a3.69,3.69,0,0,0,.58,0,4.48,4.48,0,0,0,3.59-7.12,18.25,18.25,0,0,1-3.59-13.1c1.22-9.67,10.55-17,21.71-17a25.76,25.76,0,0,1,3.27.21,24.3,24.3,0,0,1,15.26,7.81,17.88,17.88,0,0,1-1.92,26.41,4.36,4.36,0,0,0-1.46,4.68,4.41,4.41,0,0,0,3.75,3.21l32.36,4.07a14.35,14.35,0,0,0,1.73.11A13.8,13.8,0,0,0,310.5,247.8l4-31.83a4.35,4.35,0,0,0-1.07-3.51,4.5,4.5,0,0,0-3.38-1.54,4.39,4.39,0,0,0-2.51.79,18.29,18.29,0,0,1-10.4,3.35,17.51,17.51,0,0,1-2.16-.13c-10.79-1.36-18.31-12.56-16.75-25,1.45-11.51,10.15-20.18,20.24-20.18a17.55,17.55,0,0,1,2.17.13A17.89,17.89,0,0,1,312,176.12a4.37,4.37,0,0,0,3.34,1.53,4.52,4.52,0,0,0,4.47-3.93l4-31.83a13.81,13.81,0,0,0-12-15.41L205.94,113.17a14.52,14.52,0,0,0-1.74-.11Z"/><g class="cls-25"><g class="cls-26"><circle class="cls-27" cx="191.62" cy="126.58" r="60.86"/><circle class="cls-27" cx="190.34" cy="125.31" r="41.47"/><circle class="cls-27" cx="191.62" cy="126.58" r="20.13"/></g></g><path class="cls-28" d="M393.72,292.49c-13.75-.14-24.83-10.12-24.71-22.24a20.52,20.52,0,0,1,6-14.08,2.22,2.22,0,0,0-1.58-3.77l-32.65-.34a13,13,0,0,1-12.91-13.18l.33-31.59a2.2,2.2,0,0,0-.64-1.59,2.27,2.27,0,0,0-1.61-.68,2.13,2.13,0,0,0-1.37.51,20.21,20.21,0,0,1-12.91,4.75h-.2c-12.13-.13-21.87-11.42-21.73-25.17s10-24.71,22-24.71h.2a20.13,20.13,0,0,1,13,5,2.15,2.15,0,0,0,1.41.53,2.26,2.26,0,0,0,2.25-2.22l.33-31.59a13.08,13.08,0,0,1,13-12.91l106.88,1.11a13,13,0,0,1,12.9,13.18l-1.1,106.74a13.09,13.09,0,0,1-13,12.91l-32.8-.34a2.21,2.21,0,0,0-2.07,1.34,2.17,2.17,0,0,0,.41,2.4,20.49,20.49,0,0,1,5.7,14.2c-.12,12-11.28,21.72-24.87,21.72Z"/><path class="cls-15" d="M342,120h.13l106.74,1.11A12.28,12.28,0,0,1,461,133.51l-1.1,106.74a12.29,12.29,0,0,1-12.29,12.17h-.13l-32.66-.34h0a3,3,0,0,0-2.18,5,19.66,19.66,0,0,1,5.49,13.68c-.12,11.64-10.89,21-24.12,21h-.29c-13.36-.14-24.09-9.76-24-21.48a19.68,19.68,0,0,1,5.78-13.57,3,3,0,0,0-2.11-5l-32.66-.34a12.29,12.29,0,0,1-12.16-12.42l.33-31.59a3,3,0,0,0-3-3,2.89,2.89,0,0,0-1.85.68,19.47,19.47,0,0,1-12.43,4.58h-.2c-11.72-.13-21.12-11.05-21-24.41s9.65-24,21.29-24h.2A19.44,19.44,0,0,1,324.5,166a2.88,2.88,0,0,0,1.89.71,3,3,0,0,0,3-3l.33-31.59A12.29,12.29,0,0,1,342,120m0-1.5a13.84,13.84,0,0,0-13.79,13.65l-.33,31.59a1.48,1.48,0,0,1-1.5,1.48,1.39,1.39,0,0,1-.92-.35,20.86,20.86,0,0,0-13.49-5.2h-.21c-12.42,0-22.64,11.42-22.79,25.45s9.93,25.8,22.47,25.93h.21a21,21,0,0,0,13.39-4.92,1.31,1.31,0,0,1,.89-.34,1.54,1.54,0,0,1,1.08.46,1.47,1.47,0,0,1,.42,1.05l-.33,31.59a13.79,13.79,0,0,0,13.65,13.94l32.65.34a1.48,1.48,0,0,1,1.06,2.5,21.22,21.22,0,0,0-6.21,14.59c-.13,12.54,11.29,22.85,25.46,23h.3c14,0,25.49-10.08,25.62-22.47a21.23,21.23,0,0,0-5.9-14.72,1.47,1.47,0,0,1,1.09-2.47l32.67.34h.15a13.84,13.84,0,0,0,13.79-13.65l1.1-106.74a13.81,13.81,0,0,0-13.64-13.94l-106.75-1.11Z"/><g class="cls-29"><path class="cls-15" d="M293.77,139.66a2.88,2.88,0,1,1,2.36-3.31A2.88,2.88,0,0,1,293.77,139.66Z"/><path class="cls-15" d="M320.52,135.15a2.88,2.88,0,1,1,2.36-3.31A2.88,2.88,0,0,1,320.52,135.15Z"/><path class="cls-15" d="M347.27,130.64a2.88,2.88,0,1,1,2.36-3.32A2.88,2.88,0,0,1,347.27,130.64Z"/><path class="cls-15" d="M374,126.13a2.88,2.88,0,1,1,2.36-3.32A2.89,2.89,0,0,1,374,126.13Z"/><path class="cls-15" d="M400.77,121.61a2.88,2.88,0,1,1,2.36-3.31A2.88,2.88,0,0,1,400.77,121.61Z"/><path class="cls-15" d="M427.52,117.1a2.88,2.88,0,1,1,2.36-3.31A2.88,2.88,0,0,1,427.52,117.1Z"/><path class="cls-15" d="M454.27,112.59a2.88,2.88,0,1,1,2.36-3.32A2.88,2.88,0,0,1,454.27,112.59Z"/><path class="cls-15" d="M297.47,161.62a2.87,2.87,0,1,1,2.36-3.31A2.87,2.87,0,0,1,297.47,161.62Z"/><circle class="cls-15" cx="323.75" cy="154.28" r="2.88" transform="translate(-21.44 57.03) rotate(-9.75)"/><path class="cls-15" d="M351,152.6a2.87,2.87,0,1,1,2.36-3.31A2.87,2.87,0,0,1,351,152.6Z"/><path class="cls-15" d="M377.72,148.09a2.87,2.87,0,1,1,2.36-3.32A2.87,2.87,0,0,1,377.72,148.09Z"/><path class="cls-15" d="M404.47,143.58a2.88,2.88,0,1,1,2.36-3.32A2.88,2.88,0,0,1,404.47,143.58Z"/><path class="cls-15" d="M431.22,139.06a2.87,2.87,0,1,1,2.36-3.31A2.87,2.87,0,0,1,431.22,139.06Z"/><path class="cls-15" d="M458,134.55a2.87,2.87,0,1,1,2.36-3.31A2.87,2.87,0,0,1,458,134.55Z"/><path class="cls-15" d="M301.18,183.59a2.88,2.88,0,1,1,2.36-3.32A2.88,2.88,0,0,1,301.18,183.59Z"/><path class="cls-15" d="M327.93,179.07a2.88,2.88,0,1,1,2.36-3.31A2.88,2.88,0,0,1,327.93,179.07Z"/><path class="cls-15" d="M354.68,174.56a2.88,2.88,0,1,1,2.36-3.31A2.88,2.88,0,0,1,354.68,174.56Z"/><path class="cls-15" d="M381.43,170.05a2.88,2.88,0,1,1,2.36-3.31A2.88,2.88,0,0,1,381.43,170.05Z"/><path class="cls-15" d="M408.18,165.54a2.88,2.88,0,1,1,2.36-3.32A2.88,2.88,0,0,1,408.18,165.54Z"/><path class="cls-15" d="M434.93,161a2.88,2.88,0,1,1,2.36-3.32A2.89,2.89,0,0,1,434.93,161Z"/><path class="cls-15" d="M461.68,156.51A2.88,2.88,0,1,1,464,153.2,2.88,2.88,0,0,1,461.68,156.51Z"/><path class="cls-15" d="M304.88,205.55a2.87,2.87,0,1,1,2.36-3.32A2.87,2.87,0,0,1,304.88,205.55Z"/><path class="cls-15" d="M331.63,201a2.88,2.88,0,1,1,2.36-3.32A2.88,2.88,0,0,1,331.63,201Z"/><path class="cls-15" d="M358.38,196.52a2.87,2.87,0,1,1,2.36-3.31A2.87,2.87,0,0,1,358.38,196.52Z"/><path class="cls-15" d="M385.13,192a2.87,2.87,0,1,1,2.36-3.31A2.87,2.87,0,0,1,385.13,192Z"/><path class="cls-15" d="M411.88,187.5a2.87,2.87,0,1,1,2.36-3.32A2.87,2.87,0,0,1,411.88,187.5Z"/><path class="cls-15" d="M438.63,183a2.88,2.88,0,1,1,2.36-3.32A2.87,2.87,0,0,1,438.63,183Z"/><path class="cls-15" d="M465.38,178.48a2.88,2.88,0,1,1,2.36-3.32A2.88,2.88,0,0,1,465.38,178.48Z"/><path class="cls-15" d="M308.59,227.51A2.88,2.88,0,1,1,311,224.2,2.88,2.88,0,0,1,308.59,227.51Z"/><path class="cls-15" d="M335.34,223a2.88,2.88,0,1,1,2.36-3.32A2.88,2.88,0,0,1,335.34,223Z"/><path class="cls-15" d="M362.09,218.49a2.88,2.88,0,1,1,2.36-3.32A2.89,2.89,0,0,1,362.09,218.49Z"/><path class="cls-15" d="M388.84,214a2.88,2.88,0,1,1,2.36-3.31A2.88,2.88,0,0,1,388.84,214Z"/><path class="cls-15" d="M415.59,209.46a2.88,2.88,0,1,1,2.36-3.31A2.88,2.88,0,0,1,415.59,209.46Z"/><path class="cls-15" d="M442.34,205a2.88,2.88,0,1,1,2.36-3.32A2.88,2.88,0,0,1,442.34,205Z"/><path class="cls-15" d="M469.09,200.44a2.88,2.88,0,1,1,2.36-3.32A2.88,2.88,0,0,1,469.09,200.44Z"/><path class="cls-15" d="M312.29,249.47a2.87,2.87,0,1,1,2.36-3.31A2.87,2.87,0,0,1,312.29,249.47Z"/><path class="cls-15" d="M339,245a2.87,2.87,0,1,1,2.36-3.31A2.87,2.87,0,0,1,339,245Z"/><path class="cls-15" d="M365.79,240.45a2.88,2.88,0,1,1,2.36-3.32A2.87,2.87,0,0,1,365.79,240.45Z"/><path class="cls-15" d="M392.54,235.94a2.88,2.88,0,1,1,2.36-3.32A2.88,2.88,0,0,1,392.54,235.94Z"/><path class="cls-15" d="M419.29,231.42a2.87,2.87,0,1,1,2.36-3.31A2.87,2.87,0,0,1,419.29,231.42Z"/><path class="cls-15" d="M446,226.91a2.87,2.87,0,1,1,2.36-3.31A2.87,2.87,0,0,1,446,226.91Z"/><path class="cls-15" d="M472.79,222.4a2.87,2.87,0,1,1,2.36-3.32A2.87,2.87,0,0,1,472.79,222.4Z"/><path class="cls-15" d="M316,271.43a2.88,2.88,0,1,1,2.35-3.31A2.88,2.88,0,0,1,316,271.43Z"/><path class="cls-15" d="M342.75,266.92a2.88,2.88,0,1,1,2.35-3.31A2.88,2.88,0,0,1,342.75,266.92Z"/><path class="cls-15" d="M369.5,262.41a2.88,2.88,0,1,1,2.35-3.32A2.88,2.88,0,0,1,369.5,262.41Z"/><path class="cls-15" d="M396.25,257.9a2.88,2.88,0,1,1,2.35-3.32A2.88,2.88,0,0,1,396.25,257.9Z"/><path class="cls-15" d="M423,253.39a2.88,2.88,0,1,1,2.35-3.32A2.89,2.89,0,0,1,423,253.39Z"/><path class="cls-15" d="M449.75,248.87a2.88,2.88,0,1,1,2.35-3.31A2.88,2.88,0,0,1,449.75,248.87Z"/><path class="cls-15" d="M476.5,244.36a2.88,2.88,0,1,1,2.35-3.31A2.88,2.88,0,0,1,476.5,244.36Z"/><path class="cls-15" d="M319.7,293.4a2.88,2.88,0,1,1,2.36-3.32A2.88,2.88,0,0,1,319.7,293.4Z"/><path class="cls-15" d="M346.45,288.88a2.88,2.88,0,1,1,2.36-3.31A2.86,2.86,0,0,1,346.45,288.88Z"/><path class="cls-15" d="M373.2,284.37a2.88,2.88,0,1,1,2.36-3.31A2.86,2.86,0,0,1,373.2,284.37Z"/><path class="cls-15" d="M400,279.86a2.88,2.88,0,1,1,2.36-3.32A2.87,2.87,0,0,1,400,279.86Z"/><path class="cls-15" d="M426.7,275.35a2.88,2.88,0,1,1,2.36-3.32A2.87,2.87,0,0,1,426.7,275.35Z"/><path class="cls-15" d="M453.45,270.83a2.88,2.88,0,1,1,2.36-3.31A2.86,2.86,0,0,1,453.45,270.83Z"/><path class="cls-15" d="M480.2,266.32a2.88,2.88,0,1,1,2.36-3.31A2.86,2.86,0,0,1,480.2,266.32Z"/></g><path class="cls-30" d="M198.54,400.86a13,13,0,0,1-13-12.31l-6-106.58a13.07,13.07,0,0,1,12.29-13.76l32.5-1.82a2.21,2.21,0,0,0,2-1.46,2.15,2.15,0,0,0-.55-2.36,20.45,20.45,0,0,1-6.52-13.68c-.68-12.11,9.94-22.58,23.67-23.35.54,0,1.07,0,1.6,0,13.11,0,23.88,9,24.53,20.6a20.5,20.5,0,0,1-4.95,14.33,2.13,2.13,0,0,0-.31,2.35,2.2,2.2,0,0,0,2,1.3h.14l32.49-1.82.74,0a13.05,13.05,0,0,1,13,12.31l1.78,31.9a2.25,2.25,0,0,0,2.25,2.12,2.14,2.14,0,0,0,1.52-.63A20.1,20.1,0,0,1,330.86,302c.37,0,.73,0,1.1,0,11.73,0,21.5,10.41,22.24,23.7a26.59,26.59,0,0,1-5.41,17.93,20.61,20.61,0,0,1-15.14,8.2l-1.1,0a20.29,20.29,0,0,1-12.6-4.48,2.17,2.17,0,0,0-1.34-.47,2.31,2.31,0,0,0-1.65.71,2.23,2.23,0,0,0-.59,1.65l1.79,31.91a13,13,0,0,1-12.29,13.75l-106.58,6C199,400.86,198.79,400.86,198.54,400.86Z"/><path class="cls-15" d="M244.52,226.24c12.65,0,23.15,8.65,23.78,19.9a19.62,19.62,0,0,1-4.77,13.79,3,3,0,0,0,2.27,4.89H266L298.47,263l.7,0a12.3,12.3,0,0,1,12.27,11.61l1.78,31.9a3,3,0,0,0,3,2.82,2.85,2.85,0,0,0,2-.85,19.5,19.5,0,0,1,12.64-5.73c.35,0,.71,0,1.06,0,11.25,0,20.77,10.06,21.49,23,.75,13.34-8.14,24.68-19.84,25.34l-1.06,0a19.6,19.6,0,0,1-12.14-4.32,2.88,2.88,0,0,0-1.8-.63,3,3,0,0,0-3,3.16l1.79,31.9a12.29,12.29,0,0,1-11.59,13l-106.58,6c-.23,0-.46,0-.7,0a12.29,12.29,0,0,1-12.26-11.6l-6-106.58a12.29,12.29,0,0,1,11.58-13l32.5-1.82a3,3,0,0,0,1.89-5.12A19.58,19.58,0,0,1,220,248.84c-.66-11.71,9.62-21.8,23-22.55.52,0,1,0,1.56,0m0-1.5h0c-.54,0-1.1,0-1.65,0a27.34,27.34,0,0,0-17.69,7.59,20.86,20.86,0,0,0,.07,30.73,1.43,1.43,0,0,1,.36,1.56,1.46,1.46,0,0,1-1.31,1l-32.49,1.82a13.8,13.8,0,0,0-13,14.54l6,106.58a13.8,13.8,0,0,0,13.76,13c.26,0,.52,0,.79,0l106.58-6a13.8,13.8,0,0,0,13-14.55l-1.79-31.9a1.43,1.43,0,0,1,.39-1.09,1.56,1.56,0,0,1,1.1-.48,1.35,1.35,0,0,1,.87.31,21.09,21.09,0,0,0,13.07,4.64q.57,0,1.14,0A21.39,21.39,0,0,0,349.38,344,27.3,27.3,0,0,0,355,325.59c-.77-13.68-10.87-24.4-23-24.4l-1.15,0a20.9,20.9,0,0,0-13.6,6.16,1.37,1.37,0,0,1-1,.42,1.48,1.48,0,0,1-1.5-1.41l-1.79-31.9a13.79,13.79,0,0,0-13.76-13l-.78,0-32.5,1.82h-.09a1.44,1.44,0,0,1-1.33-.86,1.42,1.42,0,0,1,.2-1.56,21.27,21.27,0,0,0,5.13-14.85c-.67-12-11.77-21.31-25.28-21.31Z"/><g class="cls-31"><g class="cls-32"><path class="cls-15" d="M123.55,356.89a2.88,2.88,0,1,1,2.09-3.49A2.88,2.88,0,0,1,123.55,356.89Z"/><path class="cls-15" d="M149.87,350.32a2.88,2.88,0,1,1,2.1-3.48A2.88,2.88,0,0,1,149.87,350.32Z"/><path class="cls-15" d="M176.19,343.76a2.88,2.88,0,1,1,2.1-3.49A2.87,2.87,0,0,1,176.19,343.76Z"/><path class="cls-15" d="M202.51,337.19a2.88,2.88,0,1,1,2.1-3.48A2.86,2.86,0,0,1,202.51,337.19Z"/><path class="cls-15" d="M228.83,330.63a2.88,2.88,0,1,1,2.1-3.49A2.88,2.88,0,0,1,228.83,330.63Z"/><path class="cls-15" d="M255.16,324.06a2.88,2.88,0,1,1,2.09-3.49A2.87,2.87,0,0,1,255.16,324.06Z"/><path class="cls-15" d="M281.48,317.49a2.88,2.88,0,1,1,2.09-3.48A2.87,2.87,0,0,1,281.48,317.49Z"/><path class="cls-15" d="M128.94,378.5A2.88,2.88,0,1,1,131,375,2.88,2.88,0,0,1,128.94,378.5Z"/><path class="cls-15" d="M155.26,371.93a2.88,2.88,0,1,1,2.1-3.48A2.88,2.88,0,0,1,155.26,371.93Z"/><path class="cls-15" d="M181.58,365.37a2.88,2.88,0,1,1,2.1-3.49A2.87,2.87,0,0,1,181.58,365.37Z"/><path class="cls-15" d="M207.9,358.8a2.88,2.88,0,1,1,2.1-3.48A2.86,2.86,0,0,1,207.9,358.8Z"/><path class="cls-15" d="M234.23,352.24a2.88,2.88,0,1,1,2.09-3.49A2.88,2.88,0,0,1,234.23,352.24Z"/><path class="cls-15" d="M260.55,345.67a2.88,2.88,0,1,1,2.09-3.49A2.88,2.88,0,0,1,260.55,345.67Z"/><path class="cls-15" d="M286.87,339.1a2.88,2.88,0,1,1,2.09-3.48A2.88,2.88,0,0,1,286.87,339.1Z"/><path class="cls-15" d="M134.33,400.11a2.88,2.88,0,1,1,2.1-3.49A2.88,2.88,0,0,1,134.33,400.11Z"/><path class="cls-15" d="M160.65,393.54a2.88,2.88,0,0,1-1.39-5.58,2.88,2.88,0,1,1,1.39,5.58Z"/><path class="cls-15" d="M187,387a2.88,2.88,0,1,1,2.1-3.49A2.88,2.88,0,0,1,187,387Z"/><path class="cls-15" d="M213.3,380.41a2.88,2.88,0,1,1,2.09-3.49A2.87,2.87,0,0,1,213.3,380.41Z"/><path class="cls-15" d="M239.62,373.85a2.88,2.88,0,1,1,2.09-3.49A2.89,2.89,0,0,1,239.62,373.85Z"/><path class="cls-15" d="M265.94,367.28a2.88,2.88,0,1,1,2.09-3.49A2.88,2.88,0,0,1,265.94,367.28Z"/><circle class="cls-15" cx="291.56" cy="357.92" r="2.88" transform="translate(-165.14 425.31) rotate(-59.23)"/><path class="cls-15" d="M139.72,421.72a2.88,2.88,0,1,1,2.1-3.49A2.87,2.87,0,0,1,139.72,421.72Z"/><path class="cls-15" d="M166,415.15a2.88,2.88,0,0,1-1.39-5.58,2.88,2.88,0,1,1,1.39,5.58Z"/><path class="cls-15" d="M192.36,408.59a2.88,2.88,0,1,1,2.1-3.49A2.88,2.88,0,0,1,192.36,408.59Z"/><path class="cls-15" d="M218.69,402a2.88,2.88,0,1,1,2.09-3.49A2.87,2.87,0,0,1,218.69,402Z"/><path class="cls-15" d="M245,395.46A2.88,2.88,0,1,1,247.1,392,2.89,2.89,0,0,1,245,395.46Z"/><path class="cls-15" d="M271.33,388.89a2.88,2.88,0,1,1,2.09-3.49A2.88,2.88,0,0,1,271.33,388.89Z"/><circle class="cls-15" cx="296.95" cy="379.53" r="2.88" transform="translate(-181.07 440.49) rotate(-59.23)"/><path class="cls-15" d="M145.11,443.33a2.88,2.88,0,1,1,2.1-3.49A2.87,2.87,0,0,1,145.11,443.33Z"/><path class="cls-15" d="M171.43,436.76a2.88,2.88,0,0,1-1.39-5.58,2.88,2.88,0,1,1,1.39,5.58Z"/><path class="cls-15" d="M197.76,430.2a2.88,2.88,0,1,1,2.09-3.49A2.88,2.88,0,0,1,197.76,430.2Z"/><path class="cls-15" d="M224.08,423.63a2.88,2.88,0,1,1,2.09-3.49A2.87,2.87,0,0,1,224.08,423.63Z"/><path class="cls-15" d="M250.4,417.07a2.88,2.88,0,1,1,2.09-3.49A2.89,2.89,0,0,1,250.4,417.07Z"/><circle class="cls-15" cx="276.02" cy="407.71" r="2.88" transform="translate(-215.5 379.11) rotate(-52.57)"/><path class="cls-15" d="M303,403.93a2.88,2.88,0,1,1,2.1-3.48A2.88,2.88,0,0,1,303,403.93Z"/><path class="cls-15" d="M150.5,464.94a2.88,2.88,0,1,1,2.1-3.49A2.87,2.87,0,0,1,150.5,464.94Z"/><path class="cls-15" d="M176.83,458.37a2.88,2.88,0,1,1,2.09-3.48A2.87,2.87,0,0,1,176.83,458.37Z"/><path class="cls-15" d="M203.15,451.81a2.88,2.88,0,1,1,2.09-3.49A2.89,2.89,0,0,1,203.15,451.81Z"/><path class="cls-15" d="M229.47,445.24a2.88,2.88,0,1,1,2.09-3.49A2.88,2.88,0,0,1,229.47,445.24Z"/><path class="cls-15" d="M255.79,438.68a2.88,2.88,0,1,1,2.09-3.49A2.89,2.89,0,0,1,255.79,438.68Z"/><path class="cls-15" d="M282.11,432.11a2.88,2.88,0,1,1,2.09-3.49A2.88,2.88,0,0,1,282.11,432.11Z"/><path class="cls-15" d="M308.43,425.54a2.88,2.88,0,1,1,2.1-3.48A2.88,2.88,0,0,1,308.43,425.54Z"/><path class="cls-15" d="M155.9,486.55a2.88,2.88,0,1,1,2.09-3.49A2.87,2.87,0,0,1,155.9,486.55Z"/><path class="cls-15" d="M182.22,480a2.88,2.88,0,1,1,2.09-3.48A2.87,2.87,0,0,1,182.22,480Z"/><path class="cls-15" d="M208.54,473.42a2.88,2.88,0,1,1,2.09-3.49A2.89,2.89,0,0,1,208.54,473.42Z"/><path class="cls-15" d="M234.86,466.85a2.88,2.88,0,1,1,2.09-3.49A2.88,2.88,0,0,1,234.86,466.85Z"/><path class="cls-15" d="M261.18,460.28a2.88,2.88,0,1,1,2.09-3.48A2.88,2.88,0,0,1,261.18,460.28Z"/><circle class="cls-15" cx="286.8" cy="450.93" r="2.88" transform="translate(-247.37 466.64) rotate(-59.23)"/><path class="cls-15" d="M313.82,447.15a2.88,2.88,0,1,1,2.1-3.48A2.86,2.86,0,0,1,313.82,447.15Z"/><path class="cls-15" d="M161.29,508.16a2.88,2.88,0,1,1,2.09-3.49A2.87,2.87,0,0,1,161.29,508.16Z"/><path class="cls-15" d="M187.61,501.59a2.88,2.88,0,1,1,2.09-3.48A2.87,2.87,0,0,1,187.61,501.59Z"/><circle class="cls-15" cx="213.23" cy="492.24" r="2.88"/><path class="cls-15" d="M240.25,488.46a2.88,2.88,0,1,1,2.09-3.49A2.88,2.88,0,0,1,240.25,488.46Z"/><circle class="cls-15" cx="265.87" cy="479.1" r="2.88" transform="translate(-281.8 462.42) rotate(-59.23)"/><path class="cls-15" d="M292.89,475.33a2.88,2.88,0,1,1,2.1-3.49A2.88,2.88,0,0,1,292.89,475.33Z"/><path class="cls-15" d="M319.21,468.76a2.88,2.88,0,1,1,2.1-3.48A2.86,2.86,0,0,1,319.21,468.76Z"/></g></g><path class="cls-8" d="M54.4,248.34S53.41,292,50.74,307c-3,16.8-28,50.68-28,50.68l5.79,5.73,8.58,4.09S59,346.6,71.3,320.44c10.69-22.69,11.16-69.8,11.16-69.8"/><path class="cls-16" d="M48.18,381.51a4.3,4.3,0,0,0,0-2.87l-8.92-13.12c-8.53-1.57-16-9.26-16-9.26l-7.46,8.26a.66.66,0,0,0,.21.91l30,18.91C46.7,384.72,48.17,381.54,48.18,381.51Z"/><path class="cls-33" d="M41.6,367.74A17,17,0,0,0,38,369.55"/><path class="cls-33" d="M42.56,369.65a15.82,15.82,0,0,0-3,1.57"/><path class="cls-33" d="M43.44,371.16a20.78,20.78,0,0,0-2.78,1.42"/><line class="cls-33" x1="16.94" y1="363.18" x2="47.7" y2="382.55"/><path class="cls-33" d="M20.68,359.19s7.1,4.74,5,9.47"/><path class="cls-33" d="M46.37,376a27.77,27.77,0,0,0-5,2.61"/><path class="cls-8" d="M86.5,266.47s1.68,25.54,2.84,45.07,3.45,64.12,3.45,64.12l8.45,2,9.38-1.56s2.43-38.5,2.43-64c0-26.38-1-63.76-1-63.76"/><path class="cls-16" d="M127.24,383a4.39,4.39,0,0,0-1.53-2.43l-14.57-6.27c-8,3.25-18.44.76-18.44.76l-1.85,11a.66.66,0,0,0,.66.65l35.48-.18C127.71,386.48,127.25,383,127.24,383Z"/><path class="cls-33" d="M114.29,374.9a17,17,0,0,0-2.05,3.45"/><path class="cls-33" d="M116.13,376a14.77,14.77,0,0,0-1.69,2.93"/><path class="cls-33" d="M117.68,376.8a21.35,21.35,0,0,0-1.59,2.69"/><line class="cls-33" x1="91.04" y1="384.3" x2="127.39" y2="384.11"/><path class="cls-33" d="M92.05,378.93s8.54.18,9.27,5.32"/><path class="cls-33" d="M122.72,379.27a27.93,27.93,0,0,0-2.82,4.88"/><path class="cls-34" d="M85.88,122c-4.58-1-8.93,2-11,5.21-.64,1-1.14,2.11-1.86,3.07-4.57,6-23,4.17-19.34,16.07.42,1.37,1.22,2.64,1.34,4.06.15,1.79-.79,3.46-1.28,5.18a11.09,11.09,0,0,0,8,13.34c2.55.54,5.38.18,7.59,1.57,2,1.3,3,3.76,4.44,5.7,4,5.32,11.88,6.37,18.12,4.1,2.36-.86,4.72-2.27,5.73-4.57.58-1.31.67-2.82,1.42-4,1.44-2.36,4.64-2.75,7-4.12,3.45-2,5.47-6.57,3.9-10.29s-5-7.31-5.78-11.4c-.43-2.27.19-4.65-.27-6.92a7.39,7.39,0,0,0-2.65-4.31c-.92-.74-2-1.24-2.93-2-1.93-1.57-2.18-4.4-4.16-6s-4.62-2.15-6.75-3.53"/><path class="cls-8" d="M94.25,150.07c11.62-3.25,28.67-2.57,42.28-16S156,110.34,156,110.34l10.49,8.27s-13.77,26.41-26,35.29c-16.14,11.67-27.1,13.48-36.37,15.15"/><path class="cls-8" d="M153.1,114.73c2.87-4.39,9.8-17,10.77-16.83s-1.25,4.54-.44,4.5,4.7-6.58,5.63-6.18c1.26.53-3.07,7-3.07,7s1.13-1.16,2.09-.38c.68.56-.14,2.52-.14,2.52s1.31-1.3,2-.71-.24,2.92-.24,2.92a1.69,1.69,0,0,1,1.64,0c.66.52-2.74,8.35-9.08,18.51"/><path class="cls-12" d="M162.51,104.11a25,25,0,0,0,0,3.85,6.44,6.44,0,0,1-.46,3.79"/><path class="cls-35" d="M165.62,103.77c-.27.73-.53,1.48-.75,2.23a10.92,10.92,0,0,0-.27,1.13,2.66,2.66,0,0,0-.07,1.07c.06.17.06.18.19.18a.77.77,0,0,0,.41-.14,4.64,4.64,0,0,0,.85-.71,19,19,0,0,0,1.47-1.76.33.33,0,0,1,.56.35h0c-.36.67-.7,1.37-1,2.07a11.13,11.13,0,0,0-.37,1.06,2.39,2.39,0,0,0-.14,1c.05.11,0,.06.08.08a.58.58,0,0,0,.36-.08,2.78,2.78,0,0,0,.81-.64,10.93,10.93,0,0,0,1.34-1.8h0a.32.32,0,0,1,.45-.1.32.32,0,0,1,.12.41c-.3.63-.61,1.27-.87,1.92a8,8,0,0,0-.61,2,.85.85,0,0,0,0,.41c0,.08.1.11.25.09a2.24,2.24,0,0,0,.83-.53,12.47,12.47,0,0,0,1.39-1.59,10.06,10.06,0,0,1-1.22,1.76,2.37,2.37,0,0,1-.91.69.71.71,0,0,1-.36,0,.48.48,0,0,1-.32-.25,1.24,1.24,0,0,1-.11-.63,8.37,8.37,0,0,1,.51-2.14,20.4,20.4,0,0,1,.81-2l.57.3a10.63,10.63,0,0,1-1.4,2,3.52,3.52,0,0,1-1,.81,1.32,1.32,0,0,1-.76.16.77.77,0,0,1-.47-.2.84.84,0,0,1-.24-.44,2.72,2.72,0,0,1,.15-1.34,10,10,0,0,1,.43-1.12,23.28,23.28,0,0,1,1.06-2.12l.56.36a13.64,13.64,0,0,1-1.6,1.8,5.16,5.16,0,0,1-1,.74,1.3,1.3,0,0,1-.7.16.58.58,0,0,1-.42-.19.72.72,0,0,1-.17-.37,5.34,5.34,0,0,1,.53-2.39A23.16,23.16,0,0,1,165.62,103.77Z"/><path class="cls-34" d="M83.17,123c-.55-.3-1.28-.21-1.75-.62a2.57,2.57,0,0,1-.46-2.79c.53-1.46,2.41-2.1,3.84-1.89,3.42.51,2.89,3.8.8,5"/><path class="cls-36" d="M64.27,206.13S52,219.22,49.66,237.05s-2.37,46.85-2.37,46.85,35.35,6.48,67.5-.69c-1.23-14.83,0-56.32-11.22-77.08"/><path class="cls-37" d="M53.75,284.86s-1.11-44.78,4.09-59.9c4.07-11.87,13-23.34,13-23.34"/><path class="cls-38" d="M115.3,146.78l4.19,20a59.85,59.85,0,0,1-16.67,3.8c-4.57-.08-11.49-17.87-8.88-21.29C101.57,147,115.3,146.78,115.3,146.78Z"/><path class="cls-38" d="M63.42,169.2s-.55,23.4.85,36.93c19.74,4.37,39.3,0,39.3,0l1.36-21.26c9.86-10.12,1.22-23.23,1.22-23.23L93.94,149.26l-12.21-.68Z"/><path class="cls-38" d="M81.73,148.58s-10.85-1.72-21.34,6.91c-2.37,1.94-5.31,6-7.75,10.91l16.92,11.14,10-11.14"/><path class="cls-33" d="M109.28,169.7c-.83-3.13-3.14-8.06-3.14-11.07"/><line class="cls-33" x1="112.11" y1="146.89" x2="116.89" y2="167.68"/><line class="cls-33" x1="54.12" y1="163.64" x2="66.38" y2="171.26"/><path class="cls-8" d="M94.85,126.85s4.49,11.66,1.12,15.21c-1.74,1.85-7.81.82-10.09-.92-1.7-1.3-3.94-9-3-10.52C86.35,125,94.85,126.85,94.85,126.85Z"/><path class="cls-8" d="M82.19,137.11l-.46,11.47c.91,2.89,10.66,5.64,12.21.68l-1-8.61Z"/><path class="cls-34" d="M77,135.8a9.34,9.34,0,0,1-.48-3.41,13.17,13.17,0,0,1,.66-4.32,9.56,9.56,0,0,1,4.89-5.39c2.25-1.07,6.56-2.08,10.06,0a6.51,6.51,0,0,1,5,1.53,5,5,0,0,1,1.51,4.89l-10-1.14a9.56,9.56,0,0,1-3.5,4.46c-1.54,1-3.23,2.36-2.59,4.51.26.89-.7,1.06-.7,2.79-1.79-.19-4.44-2.75-4.85-3.79A.36.36,0,0,1,77,135.8Z"/><path class="cls-8" d="M83.71,135.26c-1.06-1.64-2-1.49-2.66-.7-.82,1.05.38,3.5,1,4,1.26.93,2.36.94,2.56-.14"/><path class="cls-12" d="M93.24,143.36a12.07,12.07,0,0,1-7.36-2.22"/><path class="cls-14" d="M92.39,132.75s2.86,2.48,2.79,3.26-1.85,1.11-1.85,1.11"/><path class="cls-15" d="M95.42,137.79l-4.82,1.33a3.19,3.19,0,0,0,3.87,1.5C96.32,140,95.42,137.79,95.42,137.79Z"/><path class="cls-16" d="M94.41,131.85a3.48,3.48,0,0,0,.21.62.39.39,0,1,0,.72-.3,4.75,4.75,0,0,0-.31-.59.34.34,0,0,0-.62.27Z"/><path class="cls-17" d="M93.28,130.68a1.29,1.29,0,0,1,1.81-.46"/><path class="cls-16" d="M89,133.89c.05.22.11.43.18.64.16.48.94.27.76-.21a5.37,5.37,0,0,0-.31-.69c-.19-.36-.7-.11-.63.26Z"/><path class="cls-17" d="M89.58,131.75a2.41,2.41,0,0,0-2.31,1.33"/><path class="cls-8" d="M52.64,166.4c-5.27,10.64-8.54,26.14,2.58,30.86,11.6,4.93,42-32.29,42-32.29l-9.38-8.08L62.73,173"/><line class="cls-12" x1="62.73" y1="173.04" x2="55.22" y2="178.89"/><path class="cls-36" d="M97.28,160h0a2.81,2.81,0,0,1-2.23-3.26l2-10.78,5.49,1-2,10.78A2.8,2.8,0,0,1,97.28,160Z"/><path class="cls-39" d="M103.39,149.33,99,148.25a5.84,5.84,0,0,1-4.3-7.05h0a5.84,5.84,0,0,1,7.06-4.29l4.41,1.07a.48.48,0,0,1,.36.59L104,149A.49.49,0,0,1,103.39,149.33Z"/><path class="cls-40" d="M106.71,144.13c-.76,3.13-2.24,5.46-3.3,5.2s-1.31-3-.55-6.14,2.25-5.46,3.31-5.2S107.47,141,106.71,144.13Z"/><path class="cls-36" d="M117.13,159.14s-8.09-6.94-12.88-9.81c-1.5-1.22-1-4.1-.58-5.68,1.07-4.06,2.48-4.59,2.48-4.59,6.5.46,16.71-2.64,16.71-2.64"/><path class="cls-40" d="M117.66,146.76c-1.79,7.07-1.59,13.22.43,13.73s5.11-4.81,6.89-11.89,1.59-13.22-.43-13.73S119.44,139.68,117.66,146.76Z"/><path class="cls-39" d="M118.85,147.08c-1.5,6-1.49,11.15,0,11.53s4-4.15,5.49-10.13,1.5-11.15,0-11.53S120.36,141.1,118.85,147.08Z"/><path class="cls-36" d="M121.53,150.5a7.61,7.61,0,0,0-3.38-.07c.18-1.07.41-2.19.7-3.35s.62-2.25,1-3.27a7.63,7.63,0,0,0,3,1.54Z"/><path class="cls-34" d="M121.47,147.74c-.36,1.44-.34,2.68,0,2.78s1-1,1.36-2.42.34-2.68,0-2.78S121.83,146.31,121.47,147.74Z"/><path class="cls-8" d="M83.29,159.81A124.56,124.56,0,0,1,94.71,153a9.52,9.52,0,0,1,7.2.15,4.13,4.13,0,0,1,1.75,1.21,3.72,3.72,0,0,1,.72,2.46.53.53,0,0,1-.17.44c-.31.21-.6-.27-.8-.6a2.48,2.48,0,0,0-2.26-1.15c.48,0,.7.48.9.92a.8.8,0,0,1-.51,1.13,1.06,1.06,0,0,1,.25,2,.72.72,0,0,1,.4.79,1.89,1.89,0,0,1-.42.85,20.26,20.26,0,0,1-3,3C95.4,167.09,88.43,175,88.43,175"/><path class="cls-8" d="M121.51,381.38l-28.32-2.11-9.29,1,.18,35.21A1.61,1.61,0,0,0,85.7,417h0a1.6,1.6,0,0,0,1.5-1l7.22-15.71,29.52,3.55"/><path class="cls-38" d="M84.47,418.64c1.17-.37,2.48-1.06,2.78-1.75l7.17-16.65c-3.72-9.19-.87-21.07-.87-21.07L81,378.26a.74.74,0,0,0-.74.75l.2,39.35C80.47,419.17,84.44,418.65,84.47,418.64Z"/><path class="cls-33" d="M93.7,403.84a19.83,19.83,0,0,0-3.94-2.35"/><path class="cls-33" d="M92.45,405.94A17.3,17.3,0,0,0,89.1,404"/><path class="cls-33" d="M91.54,407.71a25.08,25.08,0,0,0-3.08-1.81"/><line class="cls-33" x1="82.96" y1="378.47" x2="83.18" y2="418.81"/><path class="cls-33" d="M89,378.84S88.9,388.18,83,389"/><path class="cls-33" d="M88.72,413.48s-3.83-2.69-5.59-3.22"/><path class="cls-41" d="M171,323.26c.42.87,5.69,38.24,9.46,64.31,2.37,16.31,2.66,26.61-21.09,24.66-32.71-2.68-55.5-4.16-55.5-4.16l-.76-29.33L148,380.88l-5.86-29s-10.87-14.5-2.86-31.09"/><line class="cls-42" x1="107.93" y1="378.97" x2="109.12" y2="408.07"/><path class="cls-42" d="M163.1,342.63l7.9,45.91a2,2,0,0,1-2.12,2.27l-65.58-4"/><path class="cls-8" d="M204.88,377.56l-6,28.32-.25,9.3,36.43-.19a1.62,1.62,0,0,0,1.6-1.62h0a1.61,1.61,0,0,0-1-1.5l-15.71-7.22,7.42-29.52"/><path class="cls-38" d="M238.27,414.6c-.37-1.17-1.05-2.48-1.74-2.78l-16.66-7.17c-9.18,3.72-21.07.88-21.07.88l-2.12,12.54a.76.76,0,0,0,.76.75l40.55-.21C238.81,418.6,238.28,414.63,238.27,414.6Z"/><path class="cls-33" d="M223.48,405.37a18.92,18.92,0,0,0-2.35,3.94"/><path class="cls-33" d="M225.57,406.62a17.84,17.84,0,0,0-1.93,3.35"/><path class="cls-33" d="M227.35,407.54a23.1,23.1,0,0,0-1.81,3.07"/><line class="cls-33" x1="196.9" y1="416.11" x2="238.44" y2="415.9"/><path class="cls-33" d="M198.05,410s9.76.2,10.6,6.08"/><path class="cls-33" d="M233.11,410.35s-2.69,3.83-3.22,5.59"/><path class="cls-41" d="M186.13,314.72l2.08,8.16a2.64,2.64,0,0,0,2.55,2H219c6.9,0,14.18.17,18.12,6.16,3.23,4.9,2.09,13.06-.6,22.45-2.31,8-10.48,44.74-10.48,44.74H197l8.19-43.8H171.71S150,354.6,153,332.88"/><line class="cls-42" x1="197.77" y1="393.69" x2="226.83" y2="393.69"/><path class="cls-42" d="M175.68,354.42h-4s-20.75,0-21-21.54"/><path class="cls-42" d="M173.38,321.71s.53,24.3,21,24.3h15.39a3,3,0,0,1,3,3.62l-10.15,48.52"/><path class="cls-42" d="M175.38,331.79c.16.43,8.59-1.93,8.43-10.08"/><path class="cls-42" d="M157.67,335.23a35,35,0,0,0,8.44-1.16"/><path class="cls-42" d="M136.43,335.23s4.08.12,7.17,0"/><path class="cls-8" d="M161.19,233.69s10-31.15,28.73-56.22l-12.78-7.8c-20.22,21.94-33.54,58.63-33.54,58.63"/><path class="cls-34" d="M135.77,286.58s-4.18-38.42,11.65-70.65l18.69,6.1-4.92,24.64"/><line class="cls-43" x1="146.02" y1="219.55" x2="164.43" y2="225.92"/><path class="cls-8" d="M187.24,181.06c3-4.61,13.94-16.52,13.41-17.52s-4.43,3.15-4.71,2.25,5.29-7.68,4.49-8.53c-1.07-1.16-6.41,6.09-6.41,6.09s5.45-8.23,4.22-9c-.86-.52-5.31,5.57-7.3,7.68,1.87-2.57,4.4-7.08,3.49-7.6s-4,3.56-6.57,6.56c1.41-2,3.8-5.83,3-6.35s-11.19,10.49-19.37,21.67"/><path class="cls-8" d="M173.55,276.83s19.12,7.32,33.15,8.24c18.38,1.19,39.76-5.66,39.76-5.66s2.83-15.11-4.53-14.39c-9.07,1.65-24.75,2.81-36.55,1.38-7.35-.89-23-9.28-23-9.28"/><path class="cls-8" d="M237.76,265.83c5.46-.73,20.93-5.42,21.6-4.52s-4.75,2.64-4.06,3.28,9.2-1.44,9.63-.36c.58,1.47-8.26,3.14-8.26,3.14s9.77-1.34,9.9.08c.09,1-7.32,2.37-10.08,3.25,3.12-.57,8.28-.9,8.35.15s-4.95,2.08-8.76,3.08c2.44-.4,6.91-.9,7,.07s-11.93,4.34-23.39,7.08"/><path class="cls-8" d="M153.77,240.74l-2.61,13.14s7.36,7.45,15.07.51l-.09-8.8Z"/><path class="cls-8" d="M167.7,228.36s6.28,12.56,2.39,16.71c-2,2.16-5,3-7.65,1-2-1.49-9.57-10.5-8.51-12.21C158,227.31,167.7,228.36,167.7,228.36Z"/><path class="cls-8" d="M170.2,235.44s2.32,2.3,2.32,3.83c0,.68-2.32.78-2.32.78"/><path class="cls-15" d="M170.09,241.34l-4.08-.6C165.81,242.29,168.85,246.15,170.09,241.34Z"/><path class="cls-16" d="M167.11,235.23a1.11,1.11,0,0,0,.38,1.19.28.28,0,0,0,.41-.24,4.51,4.51,0,0,0-.22-1,.3.3,0,0,0-.57,0Z"/><path class="cls-17" d="M165.15,234.47a2.65,2.65,0,0,1,1.94-1.15,1.39,1.39,0,0,1,1,.23"/><path class="cls-9" d="M152.46,229.3c.68-4.46,5.21-5.38,13.65-4.13,1.13.17,3.22-.42,3.66.63.57,1.39.46,4.09-1,5.18-1.26,1-3,.45-4.44,1-2.27.82-1.15,3-2.35,4.61-2,2.67-.68,6.59-4,8.63-1.88,1.16-4.29.83-6.46.42a1.61,1.61,0,0,1-.75-.27c-.75-.58-.45-2.62-.67-3.5a27,27,0,0,1-.84-8.72C149.5,230.57,151.53,229,152.46,229.3Z"/><path class="cls-8" d="M162.08,237.17c-.44-2.62-2.4-1.71-3.1-.79-.94,1.22.47,4.06,1.2,4.59,1.48,1.07,2.75,1.09,3-.17"/><path class="cls-12" d="M166,247.37a15.31,15.31,0,0,1-4.63-2.3"/><path class="cls-34" d="M151.1,249.86s-11.42,4.84-14.94,22.86c-1.56,8,1.45,51.15,1.45,51.11,24.7,4.82,51.29-2.3,51.29-2.3s-3-28.11-4.43-38.7c-3.2-24.43-20-32.19-20-32.19Z"/><path class="cls-34" d="M164.43,250.64s9.5,1.46,15.6,4.37,19.84,9.59,19.84,9.59l-7.06,19.52-24.92-7.87"/><line class="cls-43" x1="184.21" y1="281.08" x2="170.21" y2="276.98"/><line class="cls-43" x1="195.59" y1="262.52" x2="188.9" y2="282.59"/><path class="cls-43" d="M137.37,320.78a163.09,163.09,0,0,0,51.06-1.87"/><path class="cls-8" d="M520.73,375l6,28.33-1,9.29-35.22-.19a1.6,1.6,0,0,1-1.6-1.62h0a1.6,1.6,0,0,1,1-1.49l15.71-7.23-7.42-29.52"/><path class="cls-10" d="M487.33,412.05c.38-1.17,1.06-2.48,1.75-2.77l16.66-7.18c9.18,3.72,21.06.88,21.06.88l.91,12.54a.75.75,0,0,1-.75.75l-39.35-.21C486.8,416.06,487.32,412.09,487.33,412.05Z"/><path class="cls-37" d="M502.13,402.82a20.12,20.12,0,0,1,2.35,3.94"/><path class="cls-37" d="M500,404.07a16.85,16.85,0,0,1,1.93,3.36"/><path class="cls-37" d="M498.26,405a23.67,23.67,0,0,1,1.81,3.08"/><line class="cls-37" x1="527.5" y1="413.56" x2="487.16" y2="413.35"/><path class="cls-37" d="M527.14,407.56s-9.34.07-10.18,5.95"/><path class="cls-37" d="M492.49,407.81s2.69,3.82,3.22,5.58"/><path class="cls-38" d="M508.11,272.16s-22.54,50.39-21.35,68.24c1.11,16.62,13.71,58.71,13.71,58.71l27-4.95s-12.91-52-12.24-57.36,17.17-42.39,17.17-42.39,6.38-8.72,4.19-23.71"/><path class="cls-33" d="M523,395s-12.6-52.48-11.93-57.86,16.29-41.7,16.29-41.7"/><line class="cls-33" x1="526.27" y1="389.2" x2="499.17" y2="394.66"/><path class="cls-8" d="M559.79,361.78l12.6,26.36,3.07,8.82-32,14.77a1.61,1.61,0,0,1-2.14-.78h0a1.62,1.62,0,0,1,.31-1.8l11.16-13.21-14.41-26.83"/><path class="cls-10" d="M540.43,412.73c-.16-1.21-.09-2.69.4-3.25l12-13.56c9.89-.52,19.45-8.14,19.45-8.14l6.14,11a.76.76,0,0,1-.37,1l-35.72,16.5C541.64,416.59,540.44,412.77,540.43,412.73Z"/><path class="cls-37" d="M549.92,398.1a19.52,19.52,0,0,1,3.8,2.57"/><path class="cls-37" d="M548.55,400.12a17.76,17.76,0,0,1,3.17,2.22"/><path class="cls-37" d="M547.33,401.7a25.64,25.64,0,0,1,2.95,2"/><line class="cls-37" x1="577.45" y1="397.07" x2="540.83" y2="413.98"/><path class="cls-37" d="M574.57,391.79s-8.43,4-6.7,9.7"/><path class="cls-37" d="M543.3,406.7s4.06,2.32,5.29,3.69"/><path class="cls-38" d="M525.92,273.69s-8.59,47.58-4.53,65c4.53,19.49,24.08,52.51,24.08,52.51l24.35-12.1s-21-40.14-21-48.81c0-5.42,4.81-38.81,4.81-38.81s4.81-9.68.11-24.09"/><path class="cls-33" d="M564.21,381.9s-21-39.24-21-50.41c0-5.42,3.33-30.69,4.81-38.82s4.38-17.52.11-24.08"/><path class="cls-33" d="M520.35,322.53c1.28-13.37,2.79-31.32,4.83-47.31"/><path class="cls-33" d="M539.48,275.22s1.65,4.1,10.59,6.47"/><path class="cls-33" d="M521.28,276.19s-1.35,9.81-.56,11.1c.36.6,3.19,1.13,3.19,1.13"/><path class="cls-33" d="M504.72,280s5.4.14,8.5-3.32"/><line class="cls-33" x1="567.64" y1="374.88" x2="542.95" y2="386.83"/><path class="cls-10" d="M515.61,200.73s-10.24,2.94-11.71,22.56c-1.4,8.05,2,52.79,2,52.76,24.8,4.28,51.23-3.4,51.23-3.4s-4.63-28-6.39-38.57C546.27,207.64,528,202,528,202Z"/><path class="cls-8" d="M519.91,200.91a135.73,135.73,0,0,0-15.42-21.08c-12.32-13.71-30.92-25.22-30.92-25.22s-12.58,8.84-6.81,13.46c7.64,5.16,17.41,15.41,24.85,24.67,4.64,5.78,14,23.49,14,23.49"/><path class="cls-8" d="M470.31,170.41c-4.41-3.3-18.76-10.75-18.61-11.87s5.24,1.44,5.2.5-7.6-5.4-7.14-6.48c.61-1.45,8.1,3.53,8.1,3.53s-7.93-5.87-7-7c.64-.79,6.9,3.41,9.49,4.72-2.63-1.78-6.55-5.15-5.87-6s5,2,8.42,3.92c-2-1.42-5.57-4.19-5-5s11.61,4.8,22,12"/><path class="cls-8" d="M538.7,233.59s-9.2,18.3-19,28.42c-12.79,13.27-33.21,22.6-33.21,22.6s-12.26-9.27-6.34-13.69c7.82-4.88,20.19-14.59,27.95-23.59,4.84-5.62,12.58-23.19,12.58-23.19"/><path class="cls-8" d="M483.83,268.71c-4.52,3.14-19.12,10.09-19,11.21s5.29-1.25,5.21-.31-7.77,5.13-7.36,6.22c.57,1.48,8.22-3.24,8.22-3.24s-8.13,5.58-7.27,6.72c.61.81,7-3.17,9.65-4.38-2.69,1.67-6.73,4.91-6.08,5.74s5.06-1.8,8.55-3.63c-2.07,1.35-5.71,4-5.14,4.78s11.74-4.82,22.06-10.52"/><path class="cls-10" d="M520.34,219.41C517.78,228,511,242.28,511,242.28L529.38,252s9.47-11.56,13-25.44"/><path class="cls-37" d="M529.38,252s10.28-14.36,12.07-22.12"/><path class="cls-37" d="M511,242.28s6.84-13.23,8.27-19.64"/><path class="cls-10" d="M503.56,229.12c-.23-7.19-3.69-22.22-14-36l16.24-13s14.27,11.42,18.33,21.5"/><path class="cls-8" d="M512.41,180s-4.15,11.49-.46,15.23c1.92,1.94,7.58,2.28,10,.35,1.79-1.43,4.43-10.26,3.42-11.81C521.49,177.85,512.41,180,512.41,180Z"/><path class="cls-14" d="M514.72,185.41s-2.22,2.71-2.13,3.55,2,1.14,2,1.14"/><path class="cls-15" d="M512.37,190.87l5.2,1.32a3.41,3.41,0,0,1-4.11,1.69C511.46,193.22,512.37,190.87,512.37,190.87Z"/><path class="cls-16" d="M512.67,184.21a4.89,4.89,0,0,0-.35.73c-.19.46.58.68.76.21a5.39,5.39,0,0,0,.22-.68.35.35,0,0,0-.63-.26Z"/><path class="cls-17" d="M514.51,183.2a1.39,1.39,0,0,0-2-.45"/><path class="cls-16" d="M518.52,186.28a6.81,6.81,0,0,0-.31.74c-.17.48.61.7.76.21a4.12,4.12,0,0,0,.18-.69c.07-.36-.44-.64-.63-.26Z"/><path class="cls-17" d="M518.5,184.25a2.58,2.58,0,0,1,2.51,1.38"/><path class="cls-8" d="M525.71,190.5,528,202s-8.69,6.52-13.5-.42l-.15-7.53Z"/><path class="cls-11" d="M529.86,188.52a9.52,9.52,0,0,1,.36-1.23c.34-1,.88-1.83,1.26-2.79a5,5,0,0,0-1.48-5.56,8.12,8.12,0,0,1-.86-.69,7,7,0,0,1-1.1-2.18,3,3,0,0,0-1.26-1.52c-1.36-.73-3.17.25-4.53-.47a7.6,7.6,0,0,1-.81-.59c-2-1.47-4.16-1.13-6.28-.36a6.73,6.73,0,0,0-2.15,1.39c-.9.71-2.16.66-3.07,1.35a4,4,0,0,0-1.2,3.25,3,3,0,0,0,.2,1.27,2.41,2.41,0,0,0,1.22,1.09,7.84,7.84,0,0,0,3.88.25c1.27-.1,2.73-1,4-.53s1.51,1.93,3,2c.59,0,1.3-.06,1.65.41s.18,1.41.49,2a14.45,14.45,0,0,0,1.19,1.63c.75,1.07,1.81,1.8,1.43,3.19-.26,1-1.34,2.51-.89,3.53.29.68,1.77.66,2.89-.19s1.5-2.55,1.79-3.89C529.65,189.46,529.74,189,529.86,188.52Z"/><path class="cls-8" d="M524.55,188.75c1.1-1.78,2.17-1.64,2.84-.81.9,1.11-.33,3.77-1,4.27-1.34,1-2.51,1.07-2.76-.08"/><path class="cls-12" d="M514.78,197a15.87,15.87,0,0,0,7.58-1.84"/><path class="cls-37" d="M503.36,226.47s.28-11.23-1-14.66"/><path class="cls-37" d="M513.37,203.65s2,3.55,7.57,3.43c6.26-.13,8.85-4.33,8.85-4.33"/><path class="cls-8" d="M404.65,144.18c-.62,5.31-4.56,17.62-3.79,18.12s2.63-4.23,3.18-3.71-1.53,7.68-.61,8c1.24.42,2.87-6.66,2.87-6.66s-1.34,7.8-.15,7.87c.84.05,2.27-5.58,2.93-7.76-.4,2.44-1,6.3-.13,6.34s1.86-3.3,2.61-6.29c-.28,1.91-1.17,5.7-.36,5.76s3.74-8.54,5.61-19.27"/><path class="cls-8" d="M420.17,90.22C424,118.28,415.62,152,415.62,152L404,149.49s4.35-30.43-.54-57.17"/><path class="cls-18" d="M395.74,65.22A26.18,26.18,0,0,1,412,71C419.71,77,421.65,91,421.65,91l-18.28,3.65s-1-11.8-1.1-15.84"/><path class="cls-19" d="M402.71,94.67a52.74,52.74,0,0,0-2.24-10.28"/><rect class="cls-44" x="520.31" y="59.52" width="23.04" height="23.04" transform="translate(460.72 -460.78) rotate(74.78)"/><rect class="cls-44" x="15.01" y="316.3" width="11.33" height="11.33" transform="translate(342.69 341.69) rotate(97.18)"/><circle class="cls-45" cx="582.69" cy="336.09" r="9.11" transform="translate(166.87 864.85) rotate(-81.79)"/><path class="cls-44" d="M224.89,24.43a4.56,4.56,0,1,1-4.56-4.56A4.56,4.56,0,0,1,224.89,24.43Z"/><path class="cls-44" d="M602.49,225.13a4.56,4.56,0,1,1-4.56-4.55A4.56,4.56,0,0,1,602.49,225.13Z"/><path class="cls-44" d="M607,319.14a4.56,4.56,0,1,1-4.55-4.55A4.56,4.56,0,0,1,607,319.14Z"/><path class="cls-45" d="M9.86,286.08a4.56,4.56,0,1,1-4.55-4.55A4.56,4.56,0,0,1,9.86,286.08Z"/><path class="cls-44" d="M120,41.24l.48,3a2.73,2.73,0,0,0,2.76,2.3l2,0a2.73,2.73,0,0,1,2.75,2.3l.32,2a2.74,2.74,0,0,0,2.75,2.3l2,0a2.72,2.72,0,0,1,2.75,2.29l.33,2a2.74,2.74,0,0,0,2.75,2.3l2.38-.05"/><path class="cls-44" d="M32.61,240.48l-.94-2.92a2.73,2.73,0,0,0-3.08-1.85l-2,.35a2.74,2.74,0,0,1-3.07-1.85l-.62-1.92a2.75,2.75,0,0,0-3.08-1.85l-2,.35A2.73,2.73,0,0,1,14.78,229L14.16,227a2.73,2.73,0,0,0-3.07-1.84l-2.35.41"/><path class="cls-44" d="M499.71,119.78l3.06-.26a2.72,2.72,0,0,0,2.5-2.58l.1-2a2.73,2.73,0,0,1,2.5-2.57l2-.17a2.74,2.74,0,0,0,2.5-2.58l.11-2A2.72,2.72,0,0,1,515,105l2-.18a2.73,2.73,0,0,0,2.5-2.57l.13-2.38"/><path class="cls-44" d="M594.17,164.05l-2.92.94a2.73,2.73,0,0,0-1.86,3.07l.34,2a2.73,2.73,0,0,1-1.86,3.07l-1.91.61a2.73,2.73,0,0,0-1.86,3.07l.34,2a2.74,2.74,0,0,1-1.86,3.07l-1.92.61a2.74,2.74,0,0,0-1.86,3.07l.4,2.35"/><path class="cls-44" d="M610.78,297l2.55,1.71a2.72,2.72,0,0,0,3.56-.44l1.34-1.5a2.74,2.74,0,0,1,3.56-.44l1.67,1.12A2.72,2.72,0,0,0,627,297l1.35-1.5a2.74,2.74,0,0,1,3.56-.44l1.67,1.13a2.74,2.74,0,0,0,3.56-.44l1.6-1.78"/><line class="cls-45" x1="584.1" y1="201.67" x2="573.57" y2="208.17"/><line class="cls-45" x1="477.77" y1="65.06" x2="468.09" y2="72.78"/><line class="cls-45" x1="262.44" y1="82.97" x2="250.39" y2="80.14"/><line class="cls-45" x1="34.17" y1="135.39" x2="25" y2="127.07"/></g></g></g></svg>