<svg xmlns="http://www.w3.org/2000/svg" viewBox="0 0 684.37 837"><defs><style>.cls-1{opacity:0.9;font-size:109.82px;}.cls-1,.cls-2{font-family:Algerian;}.cls-2{font-size:224.92px;}</style></defs><title>kromtec</title><g id="Layer_2" data-name="Layer 2"><g id="Layer_1-2" data-name="Layer 1"><path d="M342.18,2.83,681.54,342.18,342.18,681.54,2.83,342.18,342.18,2.83m0-2.83L0,342.18,342.18,684.37,684.37,342.18,342.18,0Z"/><path d="M342.18,60.83,623.54,342.18,342.18,623.54,60.83,342.18,342.18,60.83m0-2.83L58,342.18,342.18,626.37,626.37,342.18,342.18,58Z"/><path d="M342.18,111.83,572.54,342.18,342.18,572.54,111.83,342.18,342.18,111.83m0-2.83L109,342.18,342.18,575.37,575.37,342.18,342.18,109Z"/><text class="cls-1" transform="translate(66.16 808.52)">KROMTECH</text><text class="cls-2" transform="translate(205.85 416.83)">kt</text></g></g></svg>